<?xml version="1.0" standalone="no"?>
<!DOCTYPE svg PUBLIC "-//W3C//DTD SVG 1.1//EN" "http://www.w3.org/Graphics/SVG/1.1/DTD/svg11.dtd" >
<svg xmlns="http://www.w3.org/2000/svg" xmlns:xlink="http://www.w3.org/1999/xlink" version="1.1">
<metadata></metadata>
<defs>
<font id="dincond-mediumregular" horiz-adv-x="768" >
<font-face units-per-em="2048" ascent="1638" descent="-410" />
<missing-glyph horiz-adv-x="382" />
<glyph horiz-adv-x="0" />
<glyph horiz-adv-x="0" />
<glyph unicode="&#xd;" horiz-adv-x="512" />
<glyph unicode=" "  horiz-adv-x="382" />
<glyph unicode="&#x09;" horiz-adv-x="382" />
<glyph unicode="&#xa0;" horiz-adv-x="382" />
<glyph unicode="!" horiz-adv-x="495" d="M172 0v203h203v-203h-203zM190 395v1063h166v-1063h-166z" />
<glyph unicode="&#x22;" horiz-adv-x="808" d="M137 1065v393h170v-393h-170zM500 1065v393h170v-393h-170z" />
<glyph unicode="#" horiz-adv-x="1134" d="M104 440v156h168l39 297h-147l-2 156h172l55 409h170l-55 -409h213l55 409h170l-57 -409h143l2 -156h-168l-39 -297h148v-156h-172l-60 -440h-168l60 440h-215l-60 -440h-168l60 440h-144zM440 596h213l41 297h-215z" />
<glyph unicode="$" horiz-adv-x="888" d="M78 381h176q0 -72 10 -116t39 -75q23 -25 62 -36v536l-78 33q-55 23 -94 51.5t-61.5 70.5t-33 101.5t-10.5 140.5q0 96 27.5 172t83.5 127q68 61 166 80v185h157v-185q115 -14 178 -80q55 -53 76 -125.5t21 -173.5h-176q0 59 -8.5 100.5t-37.5 76.5q-20 25 -53 39v-482 l74 -30q61 -25 101 -59t63.5 -81t32 -110.5t8.5 -149.5q0 -115 -19.5 -189.5t-72.5 -127.5q-33 -33 -79 -54.5t-108 -29.5v-223h-157v221q-125 16 -197 86q-51 51 -70.5 120.5t-19.5 186.5zM264 1094q0 -94 18.5 -139.5t82.5 -77.5v426q-29 -12 -50 -35q-51 -57 -51 -174z M522 156q35 12 56 37q29 33 38 77.5t9 116.5q0 109 -20.5 162t-82.5 86v-479z" />
<glyph unicode="%" horiz-adv-x="1382" d="M104 934v315q0 109 66 167.5t164 58.5t164.5 -58.5t66.5 -167.5v-315q0 -109 -66.5 -167t-164.5 -58t-164 58t-66 167zM244 938q0 -104 90 -104q43 0 67.5 26.5t24.5 77.5v309q0 51 -24.5 78t-67.5 27q-90 0 -90 -105v-309zM371 0l508 1458h133l-508 -1458h-133zM815 209 v315q0 109 66.5 167.5t165.5 58.5q98 0 164.5 -58.5t66.5 -167.5v-315q0 -109 -66.5 -167t-164.5 -58t-165 58t-67 167zM954 211q0 -51 25 -78t68 -27t67.5 27t24.5 78v309q0 51 -24.5 78t-67.5 27t-68 -27t-25 -78v-309z" />
<glyph unicode="&#x26;" horiz-adv-x="1007" d="M74 346q0 129 58 233.5t177 217.5q-43 61 -74.5 108t-52 90t-31 83t-10.5 85q0 141 76 225.5t205 84.5q143 0 214 -83t71 -208q0 -63 -12.5 -117.5t-38 -103t-64.5 -94.5t-90 -95l223 -338q31 59 51.5 143.5t26.5 163.5h147q-8 -125 -44 -244.5t-89 -207.5l184 -289h-178 l-98 150q-66 -76 -136.5 -121t-180.5 -45q-70 0 -131.5 24.5t-106.5 71.5t-70.5 113.5t-25.5 152.5zM233 360q0 -96 50.5 -160.5t138.5 -64.5q66 0 118 40t101 106l-250 383q-82 -82 -120 -154t-38 -150zM295 1167q0 -53 27.5 -110.5t95.5 -151.5q66 66 100.5 124.5 t34.5 148.5q0 66 -36 105.5t-93 39.5q-66 0 -97.5 -48t-31.5 -108z" />
<glyph unicode="'" horiz-adv-x="446" d="M137 1065v393h172v-393h-172z" />
<glyph unicode="(" horiz-adv-x="499" d="M109 209v1040q0 57 8 112.5t37 108.5q29 51 66.5 93.5t82.5 87.5l113 -113q-33 -33 -61.5 -62.5t-49.5 -68.5q-31 -61 -31 -170v-1016q0 -109 31 -170q20 -39 49 -68.5t62 -62.5l-113 -113q-45 45 -84 89.5t-65 91.5q-29 53 -37 108.5t-8 112.5z" />
<glyph unicode=")" horiz-adv-x="499" d="M84 -80q33 33 61.5 62.5t49.5 68.5q31 61 30 170v1016q0 109 -30 170q-20 39 -49 68.5t-62 62.5l113 113q45 -45 82.5 -87t66.5 -94q29 -53 37 -108t8 -113v-1040q0 -57 -8 -112.5t-37 -108.5q-27 -47 -65.5 -91t-83.5 -90z" />
<glyph unicode="*" horiz-adv-x="804" d="M96 1008l195 104l-195 102l62 109l190 -117l-8 258h125l-6 -258l188 117l62 -109l-197 -102l197 -104l-62 -107l-188 115l6 -258h-125l8 258l-190 -115z" />
<glyph unicode="+" horiz-adv-x="909" d="M94 500v157h283v283h158v-283h280v-157h-280v-281h-158v281h-283z" />
<glyph unicode="," horiz-adv-x="423" d="M117 205h188v-320l-188 -139v459z" />
<glyph unicode="-" horiz-adv-x="610" d="M104 500v157h402v-157h-402z" />
<glyph unicode="." horiz-adv-x="442" d="M121 0v203h203v-203h-203z" />
<glyph unicode="/" horiz-adv-x="557" d="M8 -152l379 1762h162l-379 -1762h-162z" />
<glyph unicode="0" horiz-adv-x="780" d="M98 287v884q0 82 21.5 134.5t60.5 91.5q39 37 94.5 57.5t114.5 20.5t115.5 -20.5t95.5 -57.5q39 -39 60.5 -91.5t21.5 -134.5v-884q0 -82 -21.5 -134.5t-60.5 -91.5q-39 -37 -95 -57t-116 -20q-59 0 -114.5 20.5t-94.5 56.5q-39 39 -60.5 91.5t-21.5 134.5zM264 281 q0 -74 36 -111t89 -37t90 37t37 111v897q0 74 -37 110.5t-90 36.5t-89 -37t-36 -110v-897z" />
<glyph unicode="1" horiz-adv-x="780" d="M137 1090v192l213 176h166v-1458h-166v1264z" />
<glyph unicode="2" horiz-adv-x="780" d="M100 0v139l357 756q25 53 45 124t20 159q0 74 -35.5 110.5t-89.5 36.5q-53 0 -90 -37t-37 -110v-99h-166v95q0 80 21.5 132t60.5 91q39 37 95.5 57.5t115.5 20.5t112.5 -18.5t92.5 -55.5t62.5 -92.5t23.5 -137.5t-24.5 -170t-59.5 -159l-325 -692h409v-150h-588z" />
<glyph unicode="3" horiz-adv-x="780" d="M92 285v94h166v-98q0 -74 37 -111t90 -37q57 0 90 39q27 31 35 89t8 157q0 109 -8 162t-35 86q-31 41 -90 41h-78v139h78q47 0 80 33q27 29 34 80t7 128q0 78 -7 126.5t-30 76.5q-31 35 -84 35q-51 0 -84 -36t-33 -107v-103h-166v95q0 80 20.5 133t59.5 92q80 76 203 76 q127 0 201 -74q45 -45 65.5 -113.5t20.5 -189.5q0 -92 -8.5 -144.5t-30.5 -95.5q-29 -49 -80 -82q55 -37 82 -80q14 -25 23.5 -49t15.5 -57t8 -76t2 -104q0 -66 -3 -117t-12.5 -93t-26.5 -75t-48 -64q-37 -37 -93.5 -57t-115.5 -20t-114.5 20.5t-94.5 56.5 q-39 39 -61.5 90.5t-22.5 133.5z" />
<glyph unicode="4" horiz-adv-x="780" d="M59 240v149l373 1069h160l-363 -1069h226v334h166v-334h102v-149h-102v-240h-166v240h-396z" />
<glyph unicode="5" horiz-adv-x="780" d="M96 285v84h166v-99q0 -80 37 -116.5t90 -36.5q59 0 92 45q27 37 34 109.5t7 193.5t-7 187.5t-32 103.5q-33 49 -94 49q-53 0 -90 -39t-37 -109v-49h-158v850h566v-149h-414v-453q31 45 72 70q47 27 108 26q59 0 103.5 -20.5t78.5 -61.5q47 -57 58.5 -148t11.5 -245 q0 -80 -2 -141.5t-10 -109.5t-26.5 -87t-49.5 -71q-37 -41 -94 -62.5t-117 -21.5q-59 0 -114.5 19.5t-94.5 55.5q-39 39 -61.5 91.5t-22.5 134.5z" />
<glyph unicode="6" horiz-adv-x="780" d="M92 436q0 111 15.5 200t44.5 167l245 655h170l-237 -608q45 35 104 35q109 0 180 -84q20 -25 34 -51.5t23 -67.5t13 -99.5t4 -146.5q0 -78 -4 -133t-13 -95t-22.5 -69.5t-34.5 -56.5q-39 -51 -98 -74.5t-127 -23.5q-74 0 -131 25.5t-92 72.5q-23 29 -37 60.5t-22.5 72.5 t-11.5 94t-3 127zM258 438q0 -96 6 -163.5t35 -102.5q33 -39 90 -39q59 0 92 39q29 35 35 102.5t6 163.5t-6 164t-35 103q-35 41 -92 40q-55 0 -90 -40q-29 -35 -35 -102.5t-6 -164.5z" />
<glyph unicode="7" horiz-adv-x="780" d="M82 1094v364h612v-137l-385 -1321h-168l385 1309h-282v-215h-162z" />
<glyph unicode="8" horiz-adv-x="780" d="M92 406q0 61 2 104t7 74.5t14.5 56.5t23.5 47q27 45 84 82q-53 37 -80 84q-23 43 -32 94t-9 144q0 119 18.5 188.5t67.5 118.5q76 76 201 76q59 0 112.5 -19.5t90.5 -56.5q49 -49 67.5 -119t18.5 -188q0 -92 -9.5 -143.5t-31.5 -94.5q-27 -47 -80 -84q53 -35 82 -82 q14 -23 23.5 -47.5t15.5 -56t8 -74.5t2 -104q0 -68 -3 -119t-12 -91t-26.5 -72t-46.5 -61q-37 -39 -94 -59t-117 -20q-59 0 -115.5 20.5t-93.5 58.5q-29 29 -46 61t-26.5 72t-12.5 91t-3 119zM258 414q0 -94 8 -151.5t35 -92.5q16 -20 38.5 -28.5t49.5 -8.5t50.5 8.5 t39.5 28.5q27 33 35 91.5t8 152.5q0 104 -7 158.5t-36 89.5q-33 39 -90 38q-53 0 -88 -38q-29 -35 -36 -89.5t-7 -158.5zM268 1085q0 -78 7.5 -132t35.5 -83q29 -29 78 -28q49 0 80 30q29 29 36 82t7 131t-8 128.5t-33 78.5q-31 33 -82 33t-82 -33q-25 -29 -32 -79t-7 -128z " />
<glyph unicode="9" horiz-adv-x="780" d="M92 1022q0 78 4 133t13.5 95t22.5 70t34 56q39 51 98.5 75t126.5 24q74 0 131.5 -26t91.5 -73q23 -29 37.5 -60.5t22.5 -72.5t11 -94t3 -127q0 -111 -15.5 -200t-43.5 -167l-246 -655h-170l238 608q-45 -35 -105 -35q-109 0 -180 84q-20 25 -33.5 51.5t-23 67.5 t-13.5 99.5t-4 146.5zM258 1020q0 -96 6 -164t35 -102q35 -41 90 -41q57 0 92 41q29 35 35 102.5t6 163.5t-6 163.5t-35 102.5q-33 39 -92 39q-57 0 -90 -39q-29 -35 -35 -102.5t-6 -163.5z" />
<glyph unicode=":" horiz-adv-x="495" d="M172 0v203h203v-203h-203zM172 668v202h203v-202h-203z" />
<glyph unicode=";" horiz-adv-x="495" d="M172 668v202h203v-202h-203zM180 205h189v-320l-189 -139v459z" />
<glyph unicode="&#x3c;" horiz-adv-x="780" d="M70 526v125l641 375v-184l-443 -252l443 -252v-184z" />
<glyph unicode="=" horiz-adv-x="909" d="M94 324v157h721v-157h-721zM94 655v158h721v-158h-721z" />
<glyph unicode="&#x3e;" horiz-adv-x="780" d="M70 154v184l442 252l-442 252v184l641 -375v-125z" />
<glyph unicode="?" horiz-adv-x="819" d="M117 1114q0 86 19.5 154.5t68.5 115.5q41 39 95 62.5t126 23.5q141 0 225 -84q47 -47 68.5 -113t21.5 -177q0 -78 -13 -134.5t-50 -109.5l-121 -174q-45 -66 -45 -143v-140h-166v160q0 47 16.5 91t40.5 81l119 174q35 49 44 93t9 106q0 68 -10 109.5t-37 70.5 q-37 41 -102 41q-59 0 -98 -39q-31 -33 -38 -78t-7 -90h-166zM328 0v203h202v-203h-202z" />
<glyph unicode="@" horiz-adv-x="1150" d="M104 240v903q0 86 24 139t65 94q39 39 94 60.5t127 21.5h309q72 0 127 -21.5t94 -60.5q41 -41 64.5 -94t23.5 -139v-1143h-160v82q-10 -18 -29.5 -36.5t-35.5 -29.5q-53 -33 -115 -32q-59 0 -102 19.5t-78 57.5q-33 35 -48 84.5t-15 135.5v419q0 86 15 136.5t48 85.5 q35 39 78 57t102 18q35 0 61.5 -7t53.5 -23q14 -10 31.5 -25.5t27.5 -32.5v217q0 96 -46 143.5t-130 47.5h-244q-82 0 -129 -47t-47 -144v-882q0 -53 14.5 -87t43.5 -63l-119 -117q-59 53 -82 115t-23 148zM614 281q0 -74 37 -111t90 -37t89 37t36 111v421q0 74 -35.5 111 t-89.5 37q-53 0 -90 -37t-37 -111v-421z" />
<glyph unicode="A" horiz-adv-x="868" d="M10 0l340 1458h170l338 -1458h-186l-70 344h-338l-69 -344h-185zM297 502h272l-135 672z" />
<glyph unicode="B" horiz-adv-x="909" d="M131 0v1458h315q96 0 159 -20.5t108 -67.5q47 -51 65.5 -119.5t18.5 -179.5q0 -76 -13.5 -139.5t-66.5 -116.5q-18 -18 -40 -32.5t-44 -22.5q53 -16 90 -55q57 -59 70.5 -135t13.5 -150q0 -129 -21.5 -205t-70.5 -127q-45 -47 -108.5 -67.5t-162.5 -20.5h-313zM307 158 h127q100 0 148.5 56t48.5 206q0 141 -49.5 201.5t-147.5 60.5h-127v-524zM307 834h125q96 0 142.5 54t46.5 179q0 135 -46.5 184t-142.5 49h-125v-466z" />
<glyph unicode="C" horiz-adv-x="866" d="M96 729q0 137 2 238.5t13.5 177.5t33 130t58.5 95q41 47 101.5 76t148.5 29q76 0 132 -22.5t99 -63.5q51 -49 76.5 -124t27.5 -167h-176q0 47 -10 92t-35 76q-18 23 -45.5 37t-68.5 14q-43 0 -72 -15.5t-47 -39.5q-18 -27 -30.5 -65t-20 -98.5t-9.5 -150.5t-2 -219 t2 -219t9.5 -150.5t19.5 -98.5t31 -64q18 -25 47 -40.5t72 -15.5q41 0 68.5 15.5t45.5 38.5q25 31 36 74.5t11 90.5h177q-2 -92 -31 -169.5t-82 -127.5q-43 -41 -97.5 -60t-127.5 -19q-88 0 -148.5 28.5t-101.5 75.5q-37 41 -58.5 95.5t-33 130t-13.5 177t-2 238.5z" />
<glyph unicode="D" horiz-adv-x="917" d="M131 0v1458h338q88 0 148.5 -28.5t101.5 -73.5q37 -41 58.5 -93.5t30.5 -126t11 -173t2 -234.5t-2 -234.5t-11 -173t-30.5 -126t-58.5 -93.5q-41 -45 -101.5 -73.5t-148.5 -28.5h-338zM307 158h156q43 0 73.5 15t49.5 40q20 27 31.5 63.5t17.5 95t8 145.5t2 212t-2 212 t-8 145.5t-17.5 95.5t-31.5 63q-18 25 -49 40t-74 15h-156v-1142z" />
<glyph unicode="E" horiz-adv-x="778" d="M131 0v1458h563v-158h-387v-489h334v-158h-334v-495h387v-158h-563z" />
<glyph unicode="F" d="M131 0v1458h563v-158h-387v-489h334v-158h-334v-653h-176z" />
<glyph unicode="G" horiz-adv-x="888" d="M96 729q0 137 2 238.5t13.5 177.5t33 130t58.5 95q41 47 101.5 76t148.5 29q78 0 136 -25t99 -66q51 -53 75.5 -125.5t27.5 -162.5h-177q0 37 -6 75.5t-23.5 71.5t-49 53.5t-82.5 20.5q-43 0 -72 -15.5t-47 -39.5q-18 -27 -30.5 -65t-20 -98.5t-9.5 -150.5t-2 -219 t2 -219t9.5 -150.5t19.5 -98.5t31 -64q18 -25 47 -40.5t72 -15.5q78 0 119.5 56.5t41.5 146.5v291h-161v147h338v-432q0 -90 -26 -158.5t-72 -114.5t-107.5 -69.5t-132.5 -23.5q-88 0 -148.5 28.5t-101.5 75.5q-37 41 -58.5 95.5t-33 130t-13.5 177t-2 238.5z" />
<glyph unicode="H" horiz-adv-x="937" d="M131 0v1458h176v-637h324v637h176v-1458h-176v662h-324v-662h-176z" />
<glyph unicode="I" horiz-adv-x="440" d="M131 0v1458h176v-1458h-176z" />
<glyph unicode="J" horiz-adv-x="739" d="M10 94l125 117q23 -29 58.5 -49.5t76.5 -20.5q74 0 124 52.5t50 154.5v1110h177v-1110q0 -170 -93 -266q-94 -98 -258 -98q-82 0 -147.5 28.5t-112.5 81.5z" />
<glyph unicode="K" horiz-adv-x="899" d="M131 0v1458h176v-739l352 739h181l-295 -602l338 -856h-191l-258 659l-127 -251v-408h-176z" />
<glyph unicode="L" horiz-adv-x="739" d="M131 0v1458h176v-1300h387v-158h-563z" />
<glyph unicode="M" horiz-adv-x="1183" d="M131 0v1458h166l295 -811l293 811h166v-1458h-177v1038l-231 -682h-108l-228 666v-1022h-176z" />
<glyph unicode="N" horiz-adv-x="976" d="M131 0v1458h164l375 -997l-2 997h176v-1458h-160l-377 997v-997h-176z" />
<glyph unicode="O" horiz-adv-x="905" d="M96 729q0 137 2 238.5t13.5 177.5t33 130t58.5 95q41 47 101.5 76t148.5 29t149.5 -29t102.5 -76q37 -41 58 -95t31.5 -130t12.5 -177.5t2 -238.5t-2 -238.5t-12.5 -177t-32 -130t-57.5 -95.5q-41 -47 -102.5 -75.5t-149.5 -28.5t-148.5 28.5t-101.5 75.5 q-37 41 -58.5 95.5t-33 130t-13.5 177t-2 238.5zM272 729q0 -129 2 -219t9.5 -150.5t19.5 -98.5t31 -64q18 -25 47 -40.5t72 -15.5t71.5 15.5t46.5 40.5q18 27 30.5 64.5t20 98t9.5 150.5t2 219t-2 219t-9.5 150.5t-19.5 98.5t-31 65q-18 25 -46.5 40t-71.5 15t-72 -15.5 t-47 -39.5q-18 -27 -30.5 -65t-20 -98.5t-9.5 -150.5t-2 -219z" />
<glyph unicode="P" horiz-adv-x="890" d="M131 0v1458h328q84 0 147.5 -20.5t108.5 -69.5t67.5 -131t22.5 -203q0 -227 -82 -327.5t-264 -100.5h-152v-606h-176zM307 764h156q51 0 83 19.5t50 55t25.5 85t7.5 108.5t-7.5 109.5t-25.5 85.5t-50 54t-83 19h-156v-536z" />
<glyph unicode="Q" horiz-adv-x="905" d="M96 729q0 137 2 238.5t13.5 177.5t33 130t58.5 95q41 47 101.5 76t148.5 29t149.5 -29t102.5 -76q37 -41 58 -95t31.5 -130t12.5 -177.5t2 -238.5q0 -117 -2 -206t-8 -158.5t-18.5 -122t-35.5 -92.5l117 -99l-84 -100l-116 98q-39 -31 -91.5 -48t-117.5 -17 q-88 0 -148.5 28.5t-101.5 75.5q-37 41 -58.5 95.5t-33 130t-13.5 177t-2 238.5zM272 729q0 -129 2 -219t8.5 -151.5t18.5 -99.5t33 -64q18 -25 47 -39.5t72 -14.5t73 21l-94 80l84 100l84 -72q10 29 16.5 66t10.5 90t5 127t1 176q0 129 -2 219t-8.5 151.5t-18.5 99.5 t-33 65q-18 25 -46.5 39t-71.5 14t-72 -14.5t-47 -38.5q-20 -27 -32.5 -65t-19 -99.5t-8.5 -151.5t-2 -219z" />
<glyph unicode="R" horiz-adv-x="931" d="M131 0v1458h330q84 0 147.5 -20.5t107.5 -67.5t66.5 -127t22.5 -201q0 -154 -40 -244.5t-136 -135.5l223 -662h-184l-201 627h-160v-627h-176zM307 782h156q102 0 134 71.5t32 188.5q0 115 -32 186.5t-134 71.5h-156v-518z" />
<glyph unicode="S" horiz-adv-x="860" d="M78 381h176q0 -72 10 -116t39 -75q18 -20 49 -32.5t72 -12.5q45 0 74.5 12.5t50.5 35.5q29 33 38 77.5t9 116.5q0 63 -6 106.5t-21.5 73t-43 50t-72.5 38.5l-166 68q-55 23 -94 51.5t-61.5 70.5t-33 101.5t-10.5 140.5q0 96 27.5 172t83.5 127q43 41 101 62.5t130 21.5 q80 0 140.5 -21.5t101.5 -62.5q55 -53 75.5 -125.5t20.5 -173.5h-176q0 59 -8.5 100.5t-36.5 76.5q-39 49 -119 49q-39 0 -66.5 -12.5t-46.5 -32.5q-51 -57 -51 -174q0 -53 5 -90t20.5 -63t43 -45t70.5 -38l164 -67q61 -25 101.5 -59t64 -81t31.5 -110.5t8 -149.5 q0 -115 -18.5 -189.5t-71.5 -127.5q-41 -41 -105.5 -64.5t-152.5 -23.5q-168 0 -256 88q-51 51 -70.5 120.5t-19.5 186.5z" />
<glyph unicode="T" horiz-adv-x="751" d="M43 1300v158h666v-158h-244v-1300h-176v1300h-246z" />
<glyph unicode="U" horiz-adv-x="911" d="M119 332v1126h176v-1136q0 -86 47 -133.5t113 -47.5t113.5 47.5t47.5 133.5v1136h177v-1126q0 -80 -25 -143.5t-70 -108.5q-47 -47 -109.5 -71.5t-133.5 -24.5q-145 0 -242 96q-45 45 -69.5 108.5t-24.5 143.5z" />
<glyph unicode="V" horiz-adv-x="827" d="M8 1458h195l211 -1173l213 1173h192l-315 -1458h-180z" />
<glyph unicode="W" horiz-adv-x="1335" d="M8 1458h195l149 -1173l217 1173h197l221 -1173l148 1173h192l-250 -1458h-182l-227 1174l-226 -1174h-182z" />
<glyph unicode="X" horiz-adv-x="825" d="M31 0l278 758l-256 700h193l166 -532l168 532h192l-264 -700l287 -758h-193l-190 578l-189 -578h-192z" />
<glyph unicode="Y" horiz-adv-x="722" d="M4 1458h193l163 -622l164 622h195l-270 -868v-590h-177v590z" />
<glyph unicode="Z" horiz-adv-x="714" d="M63 0v133l406 1167h-379v158h561v-133l-403 -1167h403v-158h-588z" />
<glyph unicode="[" horiz-adv-x="530" d="M119 -152v1762h352v-146h-186v-1470h186v-146h-352z" />
<glyph unicode="\" horiz-adv-x="557" d="M8 1610h162l379 -1762h-162z" />
<glyph unicode="]" horiz-adv-x="530" d="M59 -6h187v1470h-187v146h353v-1762h-353v146z" />
<glyph unicode="^" horiz-adv-x="931" d="M117 893l274 575h150l274 -575h-164l-184 407l-184 -407h-166z" />
<glyph unicode="_" horiz-adv-x="909" d="M0 -170h909v-125h-909v125z" />
<glyph unicode="`" horiz-adv-x="772" d="M168 1477h151l142 -277h-127z" />
<glyph unicode="a" d="M66 301q0 74 23.5 136.5t70.5 103.5q41 35 91 53t134 18h109v168q0 152 -125 152q-29 0 -47.5 -9.5t-34.5 -25.5q-23 -23 -31 -51.5t-8 -71.5h-166q0 61 17.5 119.5t64.5 105.5q35 35 89 56.5t116 21.5q133 0 206 -73q39 -41 61.5 -96.5t22.5 -137.5v-770h-157v94 q-12 -23 -28.5 -41t-33.5 -30q-25 -18 -53.5 -28.5t-71.5 -10.5q-111 0 -182 79q-31 35 -49 94.5t-18 143.5zM231 307q0 -84 32 -131t97 -47q59 0 96.5 46t37.5 120v197h-95q-39 0 -66.5 -8.5t-51.5 -30.5q-23 -23 -36.5 -63t-13.5 -83z" />
<glyph unicode="b" horiz-adv-x="792" d="M117 0v1458h166v-471q25 39 59 60q47 30 111 30h4q59 0 101 -19.5t75 -58.5q51 -59 63.5 -171t12.5 -298t-12.5 -297.5t-63.5 -171.5q-35 -41 -79 -59t-97 -18q-61 0 -115 32q-16 10 -36.5 30t-29.5 36v-82h-159zM283 289q0 -84 41 -125q16 -16 38.5 -23.5t47.5 -7.5 q59 0 92 45q29 41 35 125t6 227t-6.5 228.5t-34.5 126.5q-33 45 -92 45q-53 0 -86 -33q-41 -41 -41 -123v-485z" />
<glyph unicode="c" horiz-adv-x="741" d="M82 530q0 162 14.5 273.5t63.5 175.5q41 53 98 75.5t125 22.5q66 0 116 -14t91 -55q47 -47 64.5 -112t19.5 -130h-164q0 33 -5 64.5t-28 58.5q-35 41 -92 41q-61 0 -94 -45q-29 -41 -36 -126t-7 -229q0 -143 7 -227t36 -125q33 -45 94 -45q55 0 90 39q23 25 29 55.5 t6 67.5h164q-2 -76 -21.5 -136.5t-60.5 -101.5q-37 -39 -90 -56t-119 -17q-68 0 -125 22.5t-98 75.5q-49 63 -63.5 175t-14.5 273z" />
<glyph unicode="d" horiz-adv-x="792" d="M82 530q0 186 13.5 298t64.5 171q33 39 74.5 58.5t101.5 19.5q66 0 115 -30q35 -20 59 -60v471h166v-1458h-162v82q-8 -16 -27.5 -35.5t-35.5 -30.5q-51 -32 -111 -32h-4q-53 0 -97 18t-79 59q-51 59 -64.5 171t-13.5 298zM248 530q0 -143 7 -227t36 -125q33 -45 90 -45 q25 0 47.5 7t38.5 24q43 43 43 125v485q0 43 -11.5 73t-31.5 50q-33 33 -86 33q-57 0 -90 -45q-29 -41 -36 -126t-7 -229z" />
<glyph unicode="e" horiz-adv-x="761" d="M82 530q0 168 15.5 285t76.5 180q80 82 209 82q66 0 117 -18.5t92 -63.5q66 -72 79 -202.5t13 -300.5h-436q0 -127 8 -203t37 -111q16 -18 37.5 -31.5t54.5 -13.5q57 0 94 41q37 43 37 121h164q-2 -72 -21.5 -129t-62.5 -105q-39 -41 -93 -59t-118 -18q-70 0 -119 19.5 t-90 62.5q-61 63 -77.5 179.5t-16.5 284.5zM248 616h270q0 109 -8 174.5t-33 94.5q-16 18 -38.5 31.5t-55.5 13.5t-54.5 -13.5t-37.5 -31.5q-25 -29 -34 -94.5t-9 -174.5z" />
<glyph unicode="f" horiz-adv-x="520" d="M35 932v129h121v102q0 84 23.5 141.5t68.5 94.5q49 41 109.5 54t127.5 13v-149q-164 0 -163 -160v-96h163v-129h-163v-932h-166v932h-121z" />
<glyph unicode="g" horiz-adv-x="792" d="M82 555q0 184 17.5 286.5t66.5 159.5q33 39 73 57.5t101 18.5t115 -33q35 -20 59 -59v76h162v-1088q0 -117 -20.5 -183t-65.5 -114q-37 -39 -92.5 -59t-116.5 -20t-116.5 18t-96.5 57q-45 45 -62.5 102.5t-17.5 127.5h164q0 -39 7 -72t30 -55q35 -35 90 -35q29 0 51.5 11 t38.5 28q23 25 32 67.5t9 118.5v160q-10 -16 -26.5 -33.5t-32.5 -28.5q-42 -28 -106 -28h-5q-59 0 -99 17.5t-75 58.5q-49 57 -66.5 158.5t-17.5 285.5zM248 555q0 -131 7 -212t36 -118q16 -20 37.5 -32.5t52.5 -12.5q53 0 88 35q18 20 29.5 50t11.5 71v438q0 43 -10.5 71.5 t-30.5 49.5q-35 35 -88 35q-31 0 -52.5 -12.5t-37.5 -32.5q-29 -37 -36 -118t-7 -212z" />
<glyph unicode="h" horiz-adv-x="808" d="M117 0v1458h166v-473q25 39 59 59q53 33 115 33q59 0 102 -19.5t78 -58.5q33 -35 48 -84t15 -135v-780h-165v780q0 74 -37 111t-90 37t-89 -37t-36 -111v-780h-166z" />
<glyph unicode="i" horiz-adv-x="399" d="M102 1249v193h195v-193h-195zM117 0v1042h166v-1042h-166z" />
<glyph unicode="j" horiz-adv-x="399" d="M-43 -248q78 0 119 35t41 125v1130h166v-1136q0 -88 -26 -145.5t-69 -92.5q-47 -41 -105 -53t-126 -12v149zM102 1249v193h195v-193h-195z" />
<glyph unicode="k" horiz-adv-x="808" d="M117 0v1458h166v-901l301 504h176l-258 -414l282 -647h-184l-203 500l-114 -183v-317h-166z" />
<glyph unicode="l" horiz-adv-x="466" d="M109 303v1155h165v-1149q0 -159 156 -159h2v-150q-68 0 -125 12.5t-104 53.5q-43 35 -68.5 92t-25.5 145z" />
<glyph unicode="m" horiz-adv-x="1226" d="M117 0v1061h159v-82q10 18 30 36.5t36 28.5q53 33 115 33q61 0 115.5 -30.5t86.5 -79.5q16 23 39 43t45 34q25 16 59 24.5t62 8.5q70 0 113 -19.5t78 -58.5q33 -35 47 -84t14 -135v-780h-166v780q0 74 -35.5 111t-89.5 37q-53 0 -89 -37t-36 -111v-780h-165v780 q0 74 -37 111t-90 37t-89 -37t-36 -111v-780h-166z" />
<glyph unicode="n" horiz-adv-x="808" d="M117 0v1061h159v-82q10 18 30 36.5t36 28.5q53 33 115 33q59 0 102 -19.5t78 -58.5q33 -35 48 -84t15 -135v-780h-165v780q0 74 -37 111t-90 37t-89 -37t-36 -111v-780h-166z" />
<glyph unicode="o" d="M82 530q0 162 14.5 273.5t63.5 175.5q41 53 96 75.5t127 22.5t128 -22.5t97 -75.5q49 -63 62.5 -175t13.5 -274t-13.5 -273.5t-62.5 -174.5q-41 -53 -97 -75.5t-128 -22.5t-127 22.5t-96 75.5q-49 63 -63.5 175t-14.5 273zM248 530q0 -143 7 -227t36 -125q33 -45 92 -45 q61 0 94 45q29 41 35 125t6 227t-6 228.5t-35 126.5q-33 45 -94 45q-59 0 -92 -45q-29 -41 -36 -126t-7 -229z" />
<glyph unicode="p" horiz-adv-x="792" d="M117 -397v1458h159v-82q8 16 29 35.5t37 29.5q53 33 115 33q53 0 97 -18.5t79 -59.5q51 -59 63.5 -171t12.5 -298t-12.5 -297.5t-63.5 -171.5q-33 -39 -75 -58t-101 -19q-66 0 -115 30q-35 20 -59 60v-471h-166zM283 289q0 -84 41 -125q16 -16 38.5 -23.5t47.5 -7.5 q59 0 92 45q29 41 35 125t6 227t-6.5 228.5t-34.5 126.5q-33 45 -92 45q-53 0 -86 -33q-41 -41 -41 -123v-485z" />
<glyph unicode="q" horiz-adv-x="792" d="M82 530q0 186 13.5 298t64.5 171q35 41 79 59.5t97 18.5q61 0 115 -33q16 -10 35.5 -29.5t27.5 -35.5v82h162v-1458h-166v471q-25 -39 -59 -60q-47 -30 -111 -30h-4q-59 0 -101 19.5t-75 57.5q-51 59 -64.5 171t-13.5 298zM248 530q0 -143 7 -227t36 -125q33 -45 90 -45 q25 0 47.5 7t38.5 24q43 43 43 125v485q0 43 -11.5 73t-31.5 50q-33 33 -86 33q-57 0 -90 -45q-29 -41 -36 -126t-7 -229z" />
<glyph unicode="r" horiz-adv-x="557" d="M117 0v1061h159v-113q12 23 33 42.5t41 33.5q76 53 174 53v-159h-49q-86 0 -139 -51.5t-53 -143.5v-723h-166z" />
<glyph unicode="s" horiz-adv-x="735" d="M61 299h164q0 -82 45 -129q18 -18 44 -27.5t51 -9.5q61 0 100 39q41 41 41 107q0 55 -27 96q-16 23 -38.5 41t-55.5 35l-137 69q-102 51 -146 123q-32 55 -32 134q0 75 23.5 127t64.5 93t94 60.5t115 19.5q131 0 206 -76q41 -41 63.5 -98t22.5 -135h-163q0 47 -9.5 75.5 t-29.5 51.5q-18 20 -42 28.5t-48 8.5q-57 0 -93 -35q-38 -38 -38 -99q0 -46 18 -81q23 -39 88 -70l135 -67q106 -51 150 -121q45 -68 45 -170q0 -72 -24.5 -126t-65.5 -95q-43 -45 -97.5 -64.5t-119.5 -19.5q-135 0 -213 82q-90 92 -91 233z" />
<glyph unicode="t" horiz-adv-x="532" d="M35 932v129h121v291h166v-291h163v-129h-163v-623q0 -86 43 -122.5t127 -36.5v-150q-72 0 -132.5 11.5t-111.5 54.5q-92 76 -92 237v629h-121z" />
<glyph unicode="u" horiz-adv-x="808" d="M109 281v780h165v-780q0 -74 37 -111t90 -37t89 37t36 111v780h166v-1061h-160v82q-10 -18 -29.5 -36.5t-35.5 -29.5q-51 -32 -111 -32h-4q-59 0 -102 19.5t-78 57.5q-33 35 -48 84.5t-15 135.5z" />
<glyph unicode="v" horiz-adv-x="702" d="M8 1061h182l162 -799l160 799h182l-254 -1061h-176z" />
<glyph unicode="w" horiz-adv-x="1077" d="M8 1061h189l120 -799l142 799h149l150 -799l123 799h188l-223 -1061h-168l-143 776l-140 -776h-168z" />
<glyph unicode="x" horiz-adv-x="729" d="M27 0l241 541l-229 520h184l142 -371l141 371h184l-233 -520l245 -541h-184l-153 383l-154 -383h-184z" />
<glyph unicode="y" horiz-adv-x="706" d="M8 1061h182l162 -797l160 797h182l-299 -1231q-16 -72 -49 -116t-78 -68.5t-102 -33.5t-123 -9v147q78 0 125 25.5t65 97.5l33 129z" />
<glyph unicode="z" horiz-adv-x="616" d="M49 0v127l334 786h-311v148h495v-127l-334 -784h334v-150h-518z" />
<glyph unicode="{" horiz-adv-x="636" d="M59 655v148h58q51 0 85 35.5t34 101.5v393q0 74 18 122t53 83t83 53.5t102 18.5h86v-150h-58q-51 0 -85 -34.5t-34 -100.5v-379q0 -66 -15 -107.5t-44 -70.5q-16 -16 -34.5 -24.5t-33.5 -14.5q16 -4 34 -13t34 -26q29 -29 44 -70.5t15 -107.5v-379q0 -66 34 -100.5 t85 -34.5h58v-150h-86q-53 0 -101.5 18.5t-83.5 53.5t-53 83t-18 122v393q0 66 -34 101.5t-85 35.5h-58z" />
<glyph unicode="|" horiz-adv-x="593" d="M215 -152v1762h166v-1762h-166z" />
<glyph unicode="}" horiz-adv-x="636" d="M59 -2h58q51 0 86 35t35 100v379q0 66 14 108t43 70q16 16 35.5 24.5t34.5 14.5q-16 4 -35 13.5t-35 25.5q-29 29 -43 71t-14 107v379q0 66 -35 100.5t-86 34.5h-58v150h86q53 0 101.5 -18.5t83.5 -53.5t54 -83t19 -122v-393q0 -66 33 -101.5t84 -35.5h58v-148h-58 q-51 0 -84 -35.5t-33 -101.5v-393q0 -74 -19 -122t-54 -83t-83 -53.5t-102 -18.5h-86v150z" />
<glyph unicode="~" horiz-adv-x="909" d="M72 582q70 70 120 96.5t109 26.5q49 0 90 -14.5t84 -37.5q33 -16 62.5 -27.5t66.5 -11.5t64.5 14.5t68.5 55.5l103 -100q-70 -70 -121 -96.5t-111 -26.5q-49 0 -89 14t-83 37q-33 16 -62.5 27.5t-66.5 11.5t-65.5 -13.5t-69.5 -54.5z" />
<glyph unicode="&#xa1;" horiz-adv-x="495" d="M121 858v203h203v-203h-203zM139 -397v1063h166v-1063h-166z" />
<glyph unicode="&#xa2;" horiz-adv-x="751" d="M90 737q0 154 13.5 261.5t62.5 166.5q59 74 160 90v203h131v-203q41 -6 75.5 -20t63.5 -43q47 -45 64.5 -106.5t19.5 -124.5h-164q0 31 -5 62.5t-28 55.5q-6 6 -12 12.5t-14 10.5v-727q16 12 24 20q23 23 29 52.5t6 64.5h164q-2 -72 -21.5 -128t-60.5 -97 q-53 -49 -141 -66v-221h-131v219q-100 16 -160 90q-49 59 -62.5 167t-13.5 261zM256 737q0 -137 6 -217t35 -119q6 -8 12 -15t17 -11v725q-10 -4 -16.5 -11.5t-12.5 -15.5q-29 -39 -35 -119t-6 -217z" />
<glyph unicode="&#xa3;" horiz-adv-x="874" d="M68 692v127h131v295q0 84 27.5 151.5t75.5 113.5t111.5 71t135.5 25q78 0 145.5 -28t114.5 -81l-123 -117q-23 27 -54.5 47.5t-82.5 20.5q-72 0 -123 -52.5t-51 -146.5v-299h174v-127h-174v-534h434v-158h-610v692h-131z" />
<glyph unicode="&#xa4;" horiz-adv-x="970" d="M68 510v127h120v184h-120v127h125q2 92 8 157.5t18 115t30.5 85t45.5 64.5q41 47 101.5 76t148.5 29q76 0 132 -22.5t99 -63.5q51 -49 78 -124t29 -167h-176q0 41 -7.5 80t-26 69.5t-49 50t-79.5 19.5q-43 0 -73 -15.5t-48 -39.5q-14 -18 -24.5 -41t-16.5 -58t-10 -86 t-4 -129h245v-127h-247v-184h247v-127h-245q0 -78 4 -129t10 -86t16.5 -57.5t24.5 -40.5q18 -23 48 -39.5t73 -16.5q49 0 79.5 19.5t49 50.5t26 71t7.5 78h176q-2 -92 -31 -169.5t-82 -127.5q-43 -41 -97.5 -60t-127.5 -19q-88 0 -148.5 28.5t-101.5 75.5q-27 29 -45.5 64.5 t-30.5 85t-18 115t-8 157.5h-125z" />
<glyph unicode="&#xa5;" horiz-adv-x="722" d="M14 1458h187l159 -622l162 622h185l-189 -629h113v-127h-152l-35 -112v-82h187v-127h-187v-381h-168v381h-186v127h186v82l-32 112h-154v127h113z" />
<glyph unicode="&#xa6;" horiz-adv-x="593" d="M215 -150v713h166v-713h-166zM215 895v713h166v-713h-166z" />
<glyph unicode="&#xa7;" horiz-adv-x="837" d="M106 555q0 61 3.5 107.5t13.5 82t28.5 63.5t47.5 54q16 14 36.5 26.5t47.5 18.5q-39 23 -71 49.5t-52 61.5q-16 29 -25.5 65.5t-9.5 83.5q0 66 22.5 118t63.5 93t95 60.5t116 19.5q121 0 196 -67q92 -82 93 -224h-166q0 31 -8.5 58.5t-28.5 50.5q-35 35 -86 35 q-55 0 -88 -33q-20 -18 -29.5 -44t-9.5 -54q0 -53 20 -88q29 -41 84 -70l142 -70q27 -12 57.5 -30.5t48.5 -36.5q29 -29 45.5 -57.5t24.5 -65.5t11 -86t3 -121q0 -125 -17.5 -194.5t-74.5 -120.5q-33 -29 -82 -41q37 -23 66.5 -47.5t52.5 -63.5q18 -33 28.5 -74t10.5 -82 q0 -137 -84 -221q-41 -43 -97.5 -61.5t-121.5 -18.5q-63 0 -117.5 21.5t-93.5 60.5q-86 86 -86 215h168q0 -68 41 -110q35 -37 88 -37q61 0 98 37q35 39 35 104q0 27 -6.5 51.5t-18.5 40.5q-16 25 -39.5 42.5t-52.5 31.5l-141 70q-25 12 -48.5 26.5t-41.5 32.5 q-31 31 -49.5 64.5t-27.5 73.5t-11.5 89.5t-2.5 110.5zM272 555q0 -86 8.5 -143.5t43.5 -89.5q41 -37 94 -37q59 0 96 37q35 33 43 89t8 144q0 90 -8 143.5t-43 87.5q-37 37 -96 37q-55 0 -94 -35q-33 -31 -42.5 -84t-9.5 -149z" />
<glyph unicode="&#xa8;" horiz-adv-x="772" d="M141 1231v168h168v-168h-168zM463 1231v168h166v-168h-166z" />
<glyph unicode="&#xa9;" horiz-adv-x="1746" d="M131 729q0 154 58.5 289t159 235.5t235.5 158.5t288 58q154 0 289 -58t235.5 -158.5t159 -235.5t58.5 -289t-58.5 -289t-159 -235.5t-235.5 -158.5t-289 -58t-288.5 58t-235 158.5t-159 235.5t-58.5 289zM252 729q0 -133 48 -248.5t132 -200.5t196.5 -134.5t243.5 -49.5 t245 49.5t198 134.5t132 200.5t48 248.5t-48 249t-132 201t-197.5 134t-245.5 49q-131 0 -243.5 -49t-196.5 -134t-132 -201t-48 -249zM666 727q0 123 9 212t50 138q25 29 61.5 48.5t90.5 19.5q84 0 139 -55q59 -59 61 -177h-110q0 31 -4.5 55.5t-20.5 43.5q-25 31 -65 30 q-25 0 -41.5 -9t-26.5 -23q-23 -31 -28 -101.5t-5 -181.5t5 -180.5t28 -100.5q10 -14 27.5 -24t40.5 -10q41 0 65 28q16 18 20.5 44t4.5 59h110q-2 -119 -61 -178q-53 -53 -139 -54q-53 0 -90 19.5t-62 48.5q-41 49 -50 137t-9 211z" />
<glyph unicode="&#xaa;" horiz-adv-x="643" d="M59 864q0 59 21.5 106.5t60.5 82.5q31 27 74 41t109 14h86v123q0 51 -26 83t-75 32q-41 0 -69 -29q-20 -23 -24.5 -48.5t-4.5 -47.5h-139q0 51 14 97t55 85q31 29 74 46t94 17q49 0 93 -14t77 -47q31 -31 50.5 -75t19.5 -109v-592h-131v67q-12 -18 -27.5 -31.5 t-25.5 -19.5q-39 -27 -99 -27q-94 0 -151 64q-27 29 -41.5 73t-14.5 109zM199 870q0 -55 23.5 -94t80.5 -39q45 0 76 38t31 97v134h-76q-29 0 -52.5 -5.5t-39.5 -21.5q-43 -39 -43 -109z" />
<glyph unicode="&#xab;" horiz-adv-x="802" d="M53 557l303 469v-260l-139 -209l139 -211v-260zM395 557l303 469v-260l-141 -209l141 -211v-260z" />
<glyph unicode="&#xac;" horiz-adv-x="909" d="M102 518v158h705v-377h-158v219h-547z" />
<glyph unicode="&#xad;" horiz-adv-x="610" d="M104 500v157h402v-157h-402z" />
<glyph unicode="&#xae;" horiz-adv-x="1746" d="M131 729q0 154 58.5 289t159 235.5t235.5 158.5t288 58q154 0 289 -58t235.5 -158.5t159 -235.5t58.5 -289t-58.5 -289t-159 -235.5t-235.5 -158.5t-289 -58t-288.5 58t-235 158.5t-159 235.5t-58.5 289zM252 729q0 -133 48 -248.5t132 -200.5t196.5 -134.5t243.5 -49.5 t245 49.5t198 134.5t132 200.5t48 248.5t-48 249t-132 201t-197.5 134t-245.5 49q-131 0 -243.5 -49t-196.5 -134t-132 -201t-48 -249zM686 322v813h209q90 0 139 -50q33 -33 44.5 -76.5t11.5 -109.5t-10.5 -106.5t-43.5 -73.5q-16 -16 -41 -31l119 -366h-115l-106 344h-96 v-344h-111zM797 766h98q35 0 57 22q16 18 21.5 44t5.5 67t-4 66.5t-21 44.5q-23 23 -59 22h-98v-266z" />
<glyph unicode="&#xaf;" horiz-adv-x="772" d="M152 1253v117h469v-117h-469z" />
<glyph unicode="&#xb0;" horiz-adv-x="811" d="M100 1178q0 63 25 118.5t65.5 96.5t96 64.5t119.5 23.5q63 0 118.5 -23.5t97.5 -64.5t65.5 -96.5t23.5 -118.5t-23.5 -118.5t-65.5 -96.5t-97.5 -66t-118.5 -25t-119 25t-96.5 66t-65.5 96t-25 119zM248 1178q0 -70 45 -116t113 -46t112.5 46t44.5 116q0 68 -45 113.5 t-112 45.5q-68 0 -113 -45t-45 -114z" />
<glyph unicode="&#xb1;" horiz-adv-x="909" d="M94 49v158h721v-158h-721zM94 616v158h283v281h158v-281h280v-158h-280v-280h-158v280h-283z" />
<glyph unicode="&#xb2;" horiz-adv-x="651" d="M100 1204v45q0 59 13.5 97t46.5 67q61 55 164 55q98 0 159 -49q31 -25 49.5 -64.5t18.5 -92.5q0 -98 -62 -195l-247 -387h309v-96h-447v92l277 434q23 35 34 72t11 84t-27.5 74.5t-74.5 27.5q-100 0 -101 -115v-49h-123z" />
<glyph unicode="&#xb3;" horiz-adv-x="651" d="M90 799v30h125v-32q0 -41 5 -61.5t22 -35.5q31 -27 73 -26q47 0 74 26q16 18 23.5 52t7.5 77q0 45 -5 77t-22 52q-27 33 -78 33h-55v96h55q23 0 38.5 6.5t29.5 18.5q25 23 29 57.5t4 63.5q0 31 -5 61.5t-26 51.5q-23 23 -70 22q-45 0 -71 -27q-14 -14 -19.5 -35.5 t-5.5 -50.5v-38h-125v34q0 61 14.5 98t43.5 64q61 55 163 55q55 0 94.5 -14t65.5 -39q63 -61 64 -176q0 -47 -7.5 -81t-27.5 -62q-14 -18 -30.5 -32.5t-39.5 -25.5q51 -18 78 -61q20 -29 26.5 -66t6.5 -88q0 -72 -12.5 -115.5t-53.5 -80.5q-29 -27 -73 -40.5t-91 -13.5 q-49 0 -92 13.5t-73 42.5q-29 27 -44.5 63.5t-15.5 106.5z" />
<glyph unicode="&#xb4;" horiz-adv-x="772" d="M311 1200l140 277h151l-166 -277h-125z" />
<glyph unicode="&#xb5;" horiz-adv-x="817" d="M115 -397v1458h166v-780q0 -74 35.5 -111t89.5 -37q53 0 89.5 37t36.5 111v780h166v-1061h-161v82q-10 -18 -29 -36.5t-35 -29.5q-53 -33 -119 -32q-27 0 -49 9t-31 19v-409h-159z" />
<glyph unicode="&#xb6;" horiz-adv-x="1167" d="M84 1032q0 229 79 327.5t216 98.5h670v-1855h-166v1700h-228v-1700h-166v1003h-110q-137 0 -216 98.5t-79 327.5z" />
<glyph unicode="&#xb7;" horiz-adv-x="544" d="M127 477v289h289v-289h-289z" />
<glyph unicode="&#xb8;" horiz-adv-x="772" d="M229 -373l117 295h117l-103 -295h-131z" />
<glyph unicode="&#xb9;" horiz-adv-x="651" d="M139 1233v125l148 100h123v-874h-123v745z" />
<glyph unicode="&#xba;" horiz-adv-x="641" d="M76 1040q0 125 11 212t52 137q35 41 79 59t101 18t102.5 -18t80.5 -59q41 -49 52 -136.5t11 -212.5t-11 -212t-52 -136q-35 -41 -80 -58.5t-103 -17.5q-57 0 -101 17.5t-79 58.5q-41 49 -52 136t-11 212zM215 1040q0 -92 5 -163.5t28 -104.5q25 -33 71 -33q45 0 72 33 q23 33 29 104.5t6 163.5t-6 164t-29 105q-29 35 -72 34q-47 0 -71 -34q-23 -33 -28 -104.5t-5 -164.5z" />
<glyph unicode="&#xbb;" horiz-adv-x="802" d="M104 86v260l142 211l-142 209v260l304 -469zM446 86v260l140 211l-140 209v260l304 -469z" />
<glyph unicode="&#xbc;" horiz-adv-x="1624" d="M139 1233v125l148 100h123v-874h-125v745zM469 0l506 1458h131l-506 -1458h-131zM1030 129v100l240 645h121l-236 -645h176v179h123v-179h68v-100h-68v-129h-123v129h-301z" />
<glyph unicode="&#xbd;" horiz-adv-x="1624" d="M139 1233v125l148 100h123v-874h-125v745zM469 0l506 1458h131l-506 -1458h-131zM1075 621v45q0 59 13.5 97t46.5 66q61 55 163 56q98 0 160 -49q31 -25 49.5 -65t18.5 -93q0 -98 -62 -195l-247 -387h309v-96h-447v92l277 434q23 35 34 72t11 84t-27.5 74.5t-75.5 27.5 q-100 0 -100 -114v-49h-123z" />
<glyph unicode="&#xbe;" horiz-adv-x="1624" d="M90 799v30h125v-32q0 -41 5 -61.5t22 -35.5q31 -27 73 -26q47 0 74 26q16 18 23.5 52t7.5 77q0 45 -5 77t-22 52q-27 33 -78 33h-55v96h55q23 0 38.5 6.5t29.5 18.5q25 23 29 57.5t4 63.5q0 31 -5 61.5t-26 51.5q-23 23 -70 22q-45 0 -71 -27q-14 -14 -19.5 -35.5 t-5.5 -50.5v-38h-125v34q0 61 14.5 98t43.5 64q61 55 163 55q55 0 94.5 -14t65.5 -39q63 -61 64 -176q0 -47 -7.5 -81t-27.5 -62q-14 -18 -30.5 -32.5t-39.5 -25.5q51 -18 78 -61q20 -29 26.5 -66t6.5 -88q0 -72 -12.5 -115.5t-53.5 -80.5q-29 -27 -73 -40.5t-91 -13.5 q-49 0 -92 13.5t-73 42.5q-29 27 -44.5 63.5t-15.5 106.5zM469 0l506 1458h131l-506 -1458h-131zM1028 129v100l242 645h121l-236 -645h176v179h123v-179h68v-100h-68v-129h-123v129h-303z" />
<glyph unicode="&#xbf;" horiz-adv-x="819" d="M78 -35q0 78 13 134.5t50 109.5l121 174q45 66 45 143v140h166v-160q0 -47 -16.5 -91t-40.5 -81l-119 -174q-35 -49 -44 -93t-9 -106q0 -68 11 -109.5t38 -70.5q37 -41 100 -41q59 0 99 39q31 33 39 78t8 90h166q0 -86 -19.5 -154.5t-69.5 -116.5q-41 -39 -96 -62.5 t-127 -23.5q-141 0 -225 84q-47 47 -68.5 114t-21.5 177zM289 858v203h203v-203h-203z" />
<glyph unicode="&#xc0;" horiz-adv-x="868" d="M10 0l340 1458h170l338 -1458h-186l-70 344h-338l-69 -344h-185zM219 1835h152l141 -276h-127zM297 502h272l-135 672z" />
<glyph unicode="&#xc1;" horiz-adv-x="868" d="M10 0l340 1458h170l338 -1458h-186l-70 344h-338l-69 -344h-185zM297 502h272l-135 672zM360 1559l140 276h151l-166 -276h-125z" />
<glyph unicode="&#xc2;" horiz-adv-x="868" d="M10 0l340 1458h170l338 -1458h-186l-70 344h-338l-69 -344h-185zM178 1559l191 276h137l188 -276h-135l-123 178l-121 -178h-137zM297 502h272l-135 672z" />
<glyph unicode="&#xc3;" horiz-adv-x="868" d="M10 0l340 1458h170l338 -1458h-186l-70 344h-338l-69 -344h-185zM172 1673q53 53 89 70.5t75 17.5q35 0 60.5 -7t58.5 -28q23 -14 44 -23t44 -9q18 0 37.5 8t52.5 41l78 -78q-53 -53 -91 -69.5t-75 -16.5q-35 0 -60.5 8t-56.5 27q-23 14 -44.5 22.5t-43.5 8.5 q-20 0 -39.5 -7.5t-52.5 -40.5zM297 502h272l-135 672z" />
<glyph unicode="&#xc4;" horiz-adv-x="868" d="M10 0l340 1458h170l338 -1458h-186l-70 344h-338l-69 -344h-185zM193 1589v168h167v-168h-167zM297 502h272l-135 672zM514 1589v168h166v-168h-166z" />
<glyph unicode="&#xc5;" horiz-adv-x="868" d="M10 0l340 1458h170l338 -1458h-186l-70 344h-338l-69 -344h-185zM238 1745q0 84 57 141.5t141 57.5t142.5 -57.5t58.5 -141.5q0 -41 -15.5 -78t-43 -64.5t-64.5 -43t-78 -15.5q-84 0 -141 58.5t-57 142.5zM297 502h272l-135 672zM336 1745q0 -41 29.5 -72t70.5 -31t71 31 t30 72t-30 70.5t-71 29.5t-70.5 -29.5t-29.5 -70.5z" />
<glyph unicode="&#xc6;" horiz-adv-x="1310" d="M10 0l539 1458h676v-158h-385v-489h331v-158h-331v-495h385v-158h-561v352h-334l-125 -352h-195zM385 512h279v788z" />
<glyph unicode="&#xc7;" horiz-adv-x="866" d="M96 729q0 137 2 238.5t13.5 177.5t33 130t58.5 95q41 47 101.5 76t148.5 29q76 0 132 -22.5t99 -63.5q51 -49 76.5 -124t27.5 -167h-176q0 47 -10 92t-35 76q-18 23 -45.5 37t-68.5 14q-43 0 -72 -15.5t-47 -39.5q-18 -27 -30.5 -65t-20 -98.5t-9.5 -150.5t-2 -219 t2 -219t9.5 -150.5t19.5 -98.5t31 -64q18 -25 47 -40.5t72 -15.5q41 0 68.5 15.5t45.5 38.5q25 31 36 74.5t11 90.5h177q-2 -92 -31 -169.5t-82 -127.5q-43 -41 -97.5 -60t-127.5 -19q-88 0 -148.5 28.5t-101.5 75.5q-37 41 -58.5 95.5t-33 130t-13.5 177t-2 238.5z M283 -373l116 295h117l-102 -295h-131z" />
<glyph unicode="&#xc8;" horiz-adv-x="778" d="M131 0v1458h563v-158h-387v-489h334v-158h-334v-495h387v-158h-563zM201 1835h151l142 -276h-127z" />
<glyph unicode="&#xc9;" horiz-adv-x="778" d="M131 0v1458h563v-158h-387v-489h334v-158h-334v-495h387v-158h-563zM344 1559l139 276h152l-166 -276h-125z" />
<glyph unicode="&#xca;" horiz-adv-x="778" d="M131 0v1458h563v-158h-387v-489h334v-158h-334v-495h387v-158h-563zM160 1559l190 276h137l189 -276h-135l-123 178l-121 -178h-137z" />
<glyph unicode="&#xcb;" horiz-adv-x="778" d="M131 0v1458h563v-158h-387v-489h334v-158h-334v-495h387v-158h-563zM174 1589v168h168v-168h-168zM496 1589v168h166v-168h-166z" />
<glyph unicode="&#xcc;" horiz-adv-x="440" d="M14 1835h152l141 -276h-127zM131 0v1458h176v-1458h-176z" />
<glyph unicode="&#xcd;" horiz-adv-x="440" d="M131 0v1458h176v-1458h-176zM150 1559l139 276h151l-166 -276h-124z" />
<glyph unicode="&#xce;" horiz-adv-x="440" d="M-39 1559l191 276h137l188 -276h-135l-123 178l-121 -178h-137zM131 0v1458h176v-1458h-176z" />
<glyph unicode="&#xcf;" horiz-adv-x="440" d="M-23 1589v168h168v-168h-168zM131 0v1458h176v-1458h-176zM299 1589v168h166v-168h-166z" />
<glyph unicode="&#xd0;" horiz-adv-x="940" d="M47 662v141h107v655h335q88 0 148.5 -28.5t101.5 -73.5q37 -41 58.5 -93.5t32 -126t12.5 -173t2 -234.5t-2 -234.5t-12.5 -173t-32 -126t-58.5 -93.5q-41 -45 -101 -73.5t-149 -28.5h-335v662h-107zM330 158h153q43 0 75 15t50 40q20 27 31.5 63.5t18 95t8.5 145.5t2 212 t-2 212t-8.5 145.5t-17.5 95.5t-32 63q-18 25 -50 40t-75 15h-153v-497h166v-141h-166v-504z" />
<glyph unicode="&#xd1;" horiz-adv-x="976" d="M131 0v1458h164l375 -997l-2 997h176v-1458h-160l-377 997v-997h-176zM231 1673q53 53 89 70.5t75 17.5q35 0 60.5 -7t58.5 -28q23 -14 44.5 -23t43.5 -9q18 0 37.5 8t52.5 41l78 -78q-53 -53 -91 -69.5t-75 -16.5q-35 0 -60.5 8t-56.5 27q-23 14 -44 22.5t-44 8.5 q-20 0 -39.5 -7.5t-52.5 -40.5z" />
<glyph unicode="&#xd2;" horiz-adv-x="905" d="M96 729q0 137 2 238.5t13.5 177.5t33 130t58.5 95q41 47 101.5 76t148.5 29t149.5 -29t102.5 -76q37 -41 58 -95t31.5 -130t12.5 -177.5t2 -238.5t-2 -238.5t-12.5 -177t-32 -130t-57.5 -95.5q-41 -47 -102.5 -75.5t-149.5 -28.5t-148.5 28.5t-101.5 75.5 q-37 41 -58.5 95.5t-33 130t-13.5 177t-2 238.5zM227 1835h152l141 -276h-127zM272 729q0 -129 2 -219t9.5 -150.5t19.5 -98.5t31 -64q18 -25 47 -40.5t72 -15.5t71.5 15.5t46.5 40.5q18 27 30.5 64.5t20 98t9.5 150.5t2 219t-2 219t-9.5 150.5t-19.5 98.5t-31 65 q-18 25 -46.5 40t-71.5 15t-72 -15.5t-47 -39.5q-18 -27 -30.5 -65t-20 -98.5t-9.5 -150.5t-2 -219z" />
<glyph unicode="&#xd3;" horiz-adv-x="905" d="M96 729q0 137 2 238.5t13.5 177.5t33 130t58.5 95q41 47 101.5 76t148.5 29t149.5 -29t102.5 -76q37 -41 58 -95t31.5 -130t12.5 -177.5t2 -238.5t-2 -238.5t-12.5 -177t-32 -130t-57.5 -95.5q-41 -47 -102.5 -75.5t-149.5 -28.5t-148.5 28.5t-101.5 75.5 q-37 41 -58.5 95.5t-33 130t-13.5 177t-2 238.5zM272 729q0 -129 2 -219t9.5 -150.5t19.5 -98.5t31 -64q18 -25 47 -40.5t72 -15.5t71.5 15.5t46.5 40.5q18 27 30.5 64.5t20 98t9.5 150.5t2 219t-2 219t-9.5 150.5t-19.5 98.5t-31 65q-18 25 -46.5 40t-71.5 15t-72 -15.5 t-47 -39.5q-18 -27 -30.5 -65t-20 -98.5t-9.5 -150.5t-2 -219zM371 1559l139 276h152l-166 -276h-125z" />
<glyph unicode="&#xd4;" horiz-adv-x="905" d="M96 729q0 137 2 238.5t13.5 177.5t33 130t58.5 95q41 47 101.5 76t148.5 29t149.5 -29t102.5 -76q37 -41 58 -95t31.5 -130t12.5 -177.5t2 -238.5t-2 -238.5t-12.5 -177t-32 -130t-57.5 -95.5q-41 -47 -102.5 -75.5t-149.5 -28.5t-148.5 28.5t-101.5 75.5 q-37 41 -58.5 95.5t-33 130t-13.5 177t-2 238.5zM186 1559l191 276h137l188 -276h-135l-123 178l-120 -178h-138zM272 729q0 -129 2 -219t9.5 -150.5t19.5 -98.5t31 -64q18 -25 47 -40.5t72 -15.5t71.5 15.5t46.5 40.5q18 27 30.5 64.5t20 98t9.5 150.5t2 219t-2 219 t-9.5 150.5t-19.5 98.5t-31 65q-18 25 -46.5 40t-71.5 15t-72 -15.5t-47 -39.5q-18 -27 -30.5 -65t-20 -98.5t-9.5 -150.5t-2 -219z" />
<glyph unicode="&#xd5;" horiz-adv-x="905" d="M96 729q0 137 2 238.5t13.5 177.5t33 130t58.5 95q41 47 101.5 76t148.5 29t149.5 -29t102.5 -76q37 -41 58 -95t31.5 -130t12.5 -177.5t2 -238.5t-2 -238.5t-12.5 -177t-32 -130t-57.5 -95.5q-41 -47 -102.5 -75.5t-149.5 -28.5t-148.5 28.5t-101.5 75.5 q-37 41 -58.5 95.5t-33 130t-13.5 177t-2 238.5zM180 1673q53 53 89 70.5t75 17.5q35 0 60.5 -7t58.5 -28q23 -14 44 -23t44 -9q18 0 37.5 8t52.5 41l78 -78q-53 -53 -91 -69.5t-75 -16.5q-35 0 -60.5 8t-56.5 27q-23 14 -44 22.5t-44 8.5q-20 0 -39.5 -7.5t-52.5 -40.5z M272 729q0 -129 2 -219t9.5 -150.5t19.5 -98.5t31 -64q18 -25 47 -40.5t72 -15.5t71.5 15.5t46.5 40.5q18 27 30.5 64.5t20 98t9.5 150.5t2 219t-2 219t-9.5 150.5t-19.5 98.5t-31 65q-18 25 -46.5 40t-71.5 15t-72 -15.5t-47 -39.5q-18 -27 -30.5 -65t-20 -98.5 t-9.5 -150.5t-2 -219z" />
<glyph unicode="&#xd6;" horiz-adv-x="905" d="M96 729q0 137 2 238.5t13.5 177.5t33 130t58.5 95q41 47 101.5 76t148.5 29t149.5 -29t102.5 -76q37 -41 58 -95t31.5 -130t12.5 -177.5t2 -238.5t-2 -238.5t-12.5 -177t-32 -130t-57.5 -95.5q-41 -47 -102.5 -75.5t-149.5 -28.5t-148.5 28.5t-101.5 75.5 q-37 41 -58.5 95.5t-33 130t-13.5 177t-2 238.5zM201 1589v168h168v-168h-168zM272 729q0 -129 2 -219t9.5 -150.5t19.5 -98.5t31 -64q18 -25 47 -40.5t72 -15.5t71.5 15.5t46.5 40.5q18 27 30.5 64.5t20 98t9.5 150.5t2 219t-2 219t-9.5 150.5t-19.5 98.5t-31 65 q-18 25 -46.5 40t-71.5 15t-72 -15.5t-47 -39.5q-18 -27 -30.5 -65t-20 -98.5t-9.5 -150.5t-2 -219zM522 1589v168h166v-168h-166z" />
<glyph unicode="&#xd7;" horiz-adv-x="909" d="M109 330l239 239l-239 238l108 108l238 -239l239 239l107 -108l-238 -238l238 -239l-107 -107l-239 238l-238 -238z" />
<glyph unicode="&#xd8;" horiz-adv-x="882" d="M96 729q0 137 2 238.5t13.5 177.5t33 130t58.5 95q41 47 101.5 76t148.5 29q100 0 170 -41l39 114h126l-67 -198q31 -41 49 -96.5t26.5 -131t10.5 -173t2 -220.5q0 -137 -2 -238.5t-12.5 -177t-32 -130t-57.5 -95.5q-41 -47 -102.5 -75.5t-149.5 -28.5q-104 0 -170 39 l-39 -113h-127l69 196q-33 41 -50 96.5t-26.5 131.5t-11.5 173t-2 222zM272 729q0 -152 3.5 -232.5t13.5 -127.5l278 901q-41 47 -114 47q-43 0 -72 -15.5t-47 -39.5q-18 -27 -30.5 -65t-20 -98.5t-9.5 -150.5t-2 -219zM338 186q39 -45 115 -45q43 0 71.5 15.5t46.5 40.5 q18 27 30.5 64.5t20 98t9.5 150.5t2 219q0 147 -3 229t-14 129z" />
<glyph unicode="&#xd9;" horiz-adv-x="911" d="M119 332v1126h176v-1136q0 -86 47 -133.5t113 -47.5t113.5 47.5t47.5 133.5v1136h177v-1126q0 -80 -25 -143.5t-70 -108.5q-47 -47 -109.5 -71.5t-133.5 -24.5q-145 0 -242 96q-45 45 -69.5 108.5t-24.5 143.5zM244 1835h151l142 -276h-127z" />
<glyph unicode="&#xda;" horiz-adv-x="911" d="M119 332v1126h176v-1136q0 -86 47 -133.5t113 -47.5t113.5 47.5t47.5 133.5v1136h177v-1126q0 -80 -25 -143.5t-70 -108.5q-47 -47 -109.5 -71.5t-133.5 -24.5q-145 0 -242 96q-45 45 -69.5 108.5t-24.5 143.5zM387 1559l139 276h152l-166 -276h-125z" />
<glyph unicode="&#xdb;" horiz-adv-x="911" d="M119 332v1126h176v-1136q0 -86 47 -133.5t113 -47.5t113.5 47.5t47.5 133.5v1136h177v-1126q0 -80 -25 -143.5t-70 -108.5q-47 -47 -109.5 -71.5t-133.5 -24.5q-145 0 -242 96q-45 45 -69.5 108.5t-24.5 143.5zM203 1559l190 276h137l189 -276h-135l-123 178l-121 -178 h-137z" />
<glyph unicode="&#xdc;" horiz-adv-x="911" d="M119 332v1126h176v-1136q0 -86 47 -133.5t113 -47.5t113.5 47.5t47.5 133.5v1136h177v-1126q0 -80 -25 -143.5t-70 -108.5q-47 -47 -109.5 -71.5t-133.5 -24.5q-145 0 -242 96q-45 45 -69.5 108.5t-24.5 143.5zM217 1589v168h168v-168h-168zM539 1589v168h166v-168h-166z " />
<glyph unicode="&#xdd;" horiz-adv-x="722" d="M4 1458h193l163 -622l164 622h195l-270 -868v-590h-177v590zM291 1559l139 276h152l-166 -276h-125z" />
<glyph unicode="&#xde;" horiz-adv-x="890" d="M131 0v1458h176v-295h152q84 0 147.5 -21.5t108.5 -70.5t67.5 -131t22.5 -203q0 -227 -82 -326.5t-264 -99.5h-152v-311h-176zM307 469h156q51 0 83 19.5t50 55.5t25.5 85t7.5 108q0 121 -32 194t-134 73h-156v-535z" />
<glyph unicode="&#xdf;" horiz-adv-x="806" d="M117 0v1169q0 84 22.5 135.5t61.5 90.5q39 37 93 58.5t116 21.5q61 0 116.5 -18.5t96.5 -59.5q53 -53 69.5 -118t16.5 -151q0 -53 -6.5 -105t-30.5 -99q-25 -47 -74 -80q45 -29 72 -68q18 -25 29.5 -53.5t17.5 -66.5t8 -87.5t2 -119.5q0 -129 -12.5 -218.5t-77.5 -154.5 q-47 -45 -105.5 -60.5t-119.5 -15.5v150q31 0 59.5 7t46.5 29q29 35 36 99.5t7 175.5q0 102 -7 166.5t-34 99.5q-31 41 -92 41h-16v141h14q47 0 78 37q29 35 34 81t5 89q0 55 -7.5 98t-31.5 72q-33 39 -92 39q-53 0 -91 -36t-38 -113v-1176h-166z" />
<glyph unicode="&#xe0;" d="M63 301q0 74 24 136.5t71 103.5q39 35 90 53t135 18h109v168q0 152 -125 152q-51 0 -82 -35q-23 -23 -31 -51.5t-8 -71.5h-166q0 61 17.5 119.5t64.5 105.5q35 35 88 56.5t117 21.5q63 0 116.5 -18.5t89.5 -54.5q39 -41 61.5 -96.5t22.5 -137.5v-770h-157v94 q-12 -23 -28.5 -41t-33.5 -30q-25 -18 -54.5 -28.5t-70.5 -10.5q-111 0 -182 79q-68 74 -68 238zM162 1477h151l142 -277h-127zM229 307q0 -84 32 -131t97 -47q59 0 96.5 46t37.5 120v197h-95q-39 0 -66.5 -8.5t-51.5 -30.5q-25 -23 -37.5 -63t-12.5 -83z" />
<glyph unicode="&#xe1;" d="M66 301q0 74 23.5 136.5t70.5 103.5q41 35 91 53t134 18h109v168q0 152 -125 152q-29 0 -47.5 -9.5t-34.5 -25.5q-23 -23 -31 -51.5t-8 -71.5h-166q0 61 17.5 119.5t64.5 105.5q35 35 89 56.5t116 21.5q133 0 206 -73q39 -41 61.5 -96.5t22.5 -137.5v-770h-157v94 q-12 -23 -28.5 -41t-33.5 -30q-25 -18 -53.5 -28.5t-71.5 -10.5q-111 0 -182 79q-31 35 -49 94.5t-18 143.5zM231 307q0 -84 32 -131t97 -47q59 0 96.5 46t37.5 120v197h-95q-39 0 -66.5 -8.5t-51.5 -30.5q-23 -23 -36.5 -63t-13.5 -83zM305 1200l139 277h152l-166 -277 h-125z" />
<glyph unicode="&#xe2;" d="M66 301q0 74 23.5 136.5t70.5 103.5q41 35 91 53t134 18h109v168q0 152 -125 152q-29 0 -47.5 -9.5t-34.5 -25.5q-23 -23 -31 -51.5t-8 -71.5h-166q0 61 17.5 119.5t64.5 105.5q35 35 89 56.5t116 21.5q133 0 206 -73q39 -41 61.5 -96.5t22.5 -137.5v-770h-157v94 q-12 -23 -28.5 -41t-33.5 -30q-25 -18 -53.5 -28.5t-71.5 -10.5q-111 0 -182 79q-31 35 -49 94.5t-18 143.5zM117 1200l190 277h137l189 -277h-135l-123 178l-121 -178h-137zM231 307q0 -84 32 -131t97 -47q59 0 96.5 46t37.5 120v197h-95q-39 0 -66.5 -8.5t-51.5 -30.5 q-23 -23 -36.5 -63t-13.5 -83z" />
<glyph unicode="&#xe3;" d="M66 301q0 74 23.5 136.5t70.5 103.5q41 35 91 53t134 18h109v168q0 152 -125 152q-29 0 -47.5 -9.5t-34.5 -25.5q-23 -23 -31 -51.5t-8 -71.5h-166q0 61 17.5 119.5t64.5 105.5q35 35 89 56.5t116 21.5q133 0 206 -73q39 -41 61.5 -96.5t22.5 -137.5v-770h-157v94 q-12 -23 -28.5 -41t-33.5 -30q-25 -18 -53.5 -28.5t-71.5 -10.5q-111 0 -182 79q-31 35 -49 94.5t-18 143.5zM111 1315q53 53 89 70.5t74 17.5q35 0 60.5 -7t58.5 -28q23 -14 44.5 -23.5t43.5 -9.5q18 0 38 8.5t52 40.5l78 -77q-53 -53 -91 -69.5t-75 -16.5q-35 0 -60.5 8 t-55.5 26q-23 14 -44.5 22.5t-43.5 8.5q-20 0 -40 -7t-53 -40zM231 307q0 -84 32 -131t97 -47q59 0 96.5 46t37.5 120v197h-95q-39 0 -66.5 -8.5t-51.5 -30.5q-23 -23 -36.5 -63t-13.5 -83z" />
<glyph unicode="&#xe4;" d="M66 301q0 74 23.5 136.5t70.5 103.5q41 35 91 53t134 18h109v168q0 152 -125 152q-29 0 -47.5 -9.5t-34.5 -25.5q-23 -23 -31 -51.5t-8 -71.5h-166q0 61 17.5 119.5t64.5 105.5q35 35 89 56.5t116 21.5q133 0 206 -73q39 -41 61.5 -96.5t22.5 -137.5v-770h-157v94 q-12 -23 -28.5 -41t-33.5 -30q-25 -18 -53.5 -28.5t-71.5 -10.5q-111 0 -182 79q-31 35 -49 94.5t-18 143.5zM131 1231v168h168v-168h-168zM231 307q0 -84 32 -131t97 -47q59 0 96.5 46t37.5 120v197h-95q-39 0 -66.5 -8.5t-51.5 -30.5q-23 -23 -36.5 -63t-13.5 -83z M453 1231v168h165v-168h-165z" />
<glyph unicode="&#xe5;" d="M66 301q0 74 23.5 136.5t70.5 103.5q41 35 91 53t134 18h109v168q0 152 -125 152q-29 0 -47.5 -9.5t-34.5 -25.5q-23 -23 -31 -51.5t-8 -71.5h-166q0 61 17.5 119.5t64.5 105.5q35 35 89 56.5t116 21.5q133 0 206 -73q39 -41 61.5 -96.5t22.5 -137.5v-770h-157v94 q-12 -23 -28.5 -41t-33.5 -30q-25 -18 -53.5 -28.5t-71.5 -10.5q-111 0 -182 79q-31 35 -49 94.5t-18 143.5zM176 1397q0 84 57.5 141t141.5 57t142 -57t58 -141q0 -41 -15 -78t-43 -64.5t-64.5 -43t-77.5 -15.5q-84 0 -141.5 58.5t-57.5 142.5zM231 307q0 -84 32 -131 t97 -47q59 0 96.5 46t37.5 120v197h-95q-39 0 -66.5 -8.5t-51.5 -30.5q-23 -23 -36.5 -63t-13.5 -83zM274 1397q0 -41 30 -72t71 -31t70.5 31t29.5 72t-29.5 70.5t-70.5 29.5t-71 -29.5t-30 -70.5z" />
<glyph unicode="&#xe6;" horiz-adv-x="1173" d="M66 301q0 74 23.5 136.5t70.5 103.5q41 35 91 53t134 18h109v168q0 152 -125 152q-51 0 -84 -37q-37 -43 -37 -121h-166q0 61 17.5 119.5t64.5 105.5q35 35 89 56.5t116 21.5q53 0 98 -12t78 -41q10 -10 20 -22.5t19 -24.5q12 23 30 37q70 63 181 63q66 0 117 -18.5 t92 -63.5q66 -72 78 -202.5t12 -300.5h-435q0 -127 7.5 -203t35.5 -111q16 -18 39 -31.5t56 -13.5q57 0 94 41q37 43 37 121h164q-2 -72 -21.5 -129t-62.5 -105q-39 -41 -93.5 -59t-117.5 -18q-102 0 -176 57q-45 35 -74 90q-16 -33 -37 -59.5t-43 -42.5q-57 -45 -152 -45 q-111 0 -182 79q-31 35 -49 94.5t-18 143.5zM231 307q0 -84 32 -131t97 -47q59 0 96.5 46t37.5 120v197h-95q-39 0 -66.5 -8.5t-51.5 -30.5q-23 -23 -36.5 -63t-13.5 -83zM659 616h269q0 109 -8.5 174.5t-32.5 94.5q-16 18 -38 31.5t-54 13.5q-33 0 -54.5 -13.5t-38.5 -31.5 q-25 -29 -34 -94.5t-9 -174.5z" />
<glyph unicode="&#xe7;" horiz-adv-x="741" d="M82 530q0 162 14.5 273.5t63.5 175.5q41 53 98 75.5t125 22.5q66 0 116 -14t91 -55q47 -47 64.5 -112t19.5 -130h-164q0 33 -5 64.5t-28 58.5q-35 41 -92 41q-61 0 -94 -45q-29 -41 -36 -126t-7 -229q0 -143 7 -227t36 -125q33 -45 94 -45q55 0 90 39q23 25 29 55.5 t6 67.5h164q-2 -76 -21.5 -136.5t-60.5 -101.5q-37 -39 -90 -56t-119 -17q-68 0 -125 22.5t-98 75.5q-49 63 -63.5 175t-14.5 273zM229 -373l117 295h117l-103 -295h-131z" />
<glyph unicode="&#xe8;" horiz-adv-x="772" d="M168 530q0 168 15.5 285t76.5 180q80 82 209 82q66 0 117 -18.5t92 -63.5q66 -72 79 -202.5t13 -300.5h-436q0 -127 8 -203t37 -111q16 -18 37.5 -31.5t54.5 -13.5q57 0 94 41q37 43 37 121h164q-2 -72 -21.5 -129t-62.5 -105q-39 -41 -93 -59t-118 -18q-70 0 -119 19.5 t-90 62.5q-61 63 -77.5 179.5t-16.5 284.5zM236 1477h151l141 -277h-127zM334 616h270q0 109 -8 174.5t-33 94.5q-16 18 -38.5 31.5t-55.5 13.5t-54.5 -13.5t-37.5 -31.5q-25 -29 -34 -94.5t-9 -174.5z" />
<glyph unicode="&#xe9;" horiz-adv-x="761" d="M82 530q0 168 15.5 285t76.5 180q80 82 209 82q66 0 117 -18.5t92 -63.5q66 -72 79 -202.5t13 -300.5h-436q0 -127 8 -203t37 -111q16 -18 37.5 -31.5t54.5 -13.5q57 0 94 41q37 43 37 121h164q-2 -72 -21.5 -129t-62.5 -105q-39 -41 -93 -59t-118 -18q-70 0 -119 19.5 t-90 62.5q-61 63 -77.5 179.5t-16.5 284.5zM248 616h270q0 109 -8 174.5t-33 94.5q-16 18 -38.5 31.5t-55.5 13.5t-54.5 -13.5t-37.5 -31.5q-25 -29 -34 -94.5t-9 -174.5zM311 1200l140 277h151l-166 -277h-125z" />
<glyph unicode="&#xea;" horiz-adv-x="761" d="M82 530q0 168 15.5 285t76.5 180q80 82 209 82q66 0 117 -18.5t92 -63.5q66 -72 79 -202.5t13 -300.5h-436q0 -127 8 -203t37 -111q16 -18 37.5 -31.5t54.5 -13.5q57 0 94 41q37 43 37 121h164q-2 -72 -21.5 -129t-62.5 -105q-39 -41 -93 -59t-118 -18q-70 0 -119 19.5 t-90 62.5q-61 63 -77.5 179.5t-16.5 284.5zM127 1200l190 277h138l188 -277h-135l-123 178l-121 -178h-137zM248 616h270q0 109 -8 174.5t-33 94.5q-16 18 -38.5 31.5t-55.5 13.5t-54.5 -13.5t-37.5 -31.5q-25 -29 -34 -94.5t-9 -174.5z" />
<glyph unicode="&#xeb;" horiz-adv-x="761" d="M82 530q0 168 15.5 285t76.5 180q80 82 209 82q66 0 117 -18.5t92 -63.5q66 -72 79 -202.5t13 -300.5h-436q0 -127 8 -203t37 -111q16 -18 37.5 -31.5t54.5 -13.5q57 0 94 41q37 43 37 121h164q-2 -72 -21.5 -129t-62.5 -105q-39 -41 -93 -59t-118 -18q-70 0 -119 19.5 t-90 62.5q-61 63 -77.5 179.5t-16.5 284.5zM141 1231v168h168v-168h-168zM248 616h270q0 109 -8 174.5t-33 94.5q-16 18 -38.5 31.5t-55.5 13.5t-54.5 -13.5t-37.5 -31.5q-25 -29 -34 -94.5t-9 -174.5zM463 1231v168h166v-168h-166z" />
<glyph unicode="&#xec;" horiz-adv-x="399" d="M-12 1477h151l142 -277h-127zM119 0v1061h166v-1061h-166z" />
<glyph unicode="&#xed;" horiz-adv-x="399" d="M119 0v1061h166v-1061h-166zM127 1200l141 277h152l-166 -277h-127z" />
<glyph unicode="&#xee;" horiz-adv-x="399" d="M-57 1200l190 277h135l191 -277h-135l-123 178l-123 -178h-135zM119 0v1061h166v-1061h-166z" />
<glyph unicode="&#xef;" horiz-adv-x="399" d="M-43 1231v168h168v-168h-168zM119 0v1061h166v-1061h-166zM276 1231v168h168v-168h-168z" />
<glyph unicode="&#xf0;" horiz-adv-x="772" d="M84 504q0 178 13.5 282.5t64.5 161.5q35 37 79 56.5t103 19.5q29 0 61.5 -8t57.5 -25l-64 187h-159v125h118l-55 155h168l55 -155h146v-125h-107l72 -222q12 -41 21.5 -85t15.5 -96t9 -118.5t3 -152.5q0 -156 -14.5 -262.5t-63.5 -165.5q-41 -49 -96 -70.5t-127 -21.5 t-126 21.5t-95 70.5q-49 59 -64.5 165.5t-15.5 262.5zM250 506q0 -137 7 -215t36 -115q33 -43 92 -43q61 0 94 43q29 37 35 115t6 215t-6 216t-35 116q-33 43 -94 43q-59 0 -92 -43q-29 -37 -36 -116t-7 -216z" />
<glyph unicode="&#xf1;" horiz-adv-x="808" d="M117 0v1061h159v-82q10 18 30 36.5t36 28.5q53 33 115 33q59 0 102 -19.5t78 -58.5q33 -35 48 -84t15 -135v-780h-165v780q0 74 -37 111t-90 37t-89 -37t-36 -111v-780h-166zM147 1315q53 53 89 70.5t75 17.5q35 0 60.5 -7t58.5 -28q23 -14 44.5 -23.5t43.5 -9.5 q18 0 37.5 8.5t52.5 40.5l78 -77q-53 -53 -91 -69.5t-75 -16.5q-35 0 -60.5 8t-56.5 26q-23 14 -44 22.5t-44 8.5q-20 0 -39.5 -7t-52.5 -40z" />
<glyph unicode="&#xf2;" horiz-adv-x="772" d="M168 530q0 162 14.5 273.5t63.5 175.5q41 53 96 75.5t127 22.5t128 -22.5t97 -75.5q49 -63 62.5 -175t13.5 -274t-13.5 -273.5t-62.5 -174.5q-41 -53 -97 -75.5t-128 -22.5t-127 22.5t-96 75.5q-49 63 -63.5 175t-14.5 273zM248 1477h151l142 -277h-127zM334 530 q0 -143 7 -227t36 -125q33 -45 92 -45q61 0 94 45q29 41 35 125t6 227t-6 228.5t-35 126.5q-33 45 -94 45q-59 0 -92 -45q-29 -41 -36 -126t-7 -229z" />
<glyph unicode="&#xf3;" d="M82 530q0 162 14.5 273.5t63.5 175.5q41 53 96 75.5t127 22.5t128 -22.5t97 -75.5q49 -63 62.5 -175t13.5 -274t-13.5 -273.5t-62.5 -174.5q-41 -53 -97 -75.5t-128 -22.5t-127 22.5t-96 75.5q-49 63 -63.5 175t-14.5 273zM248 530q0 -143 7 -227t36 -125q33 -45 92 -45 q61 0 94 45q29 41 35 125t6 227t-6 228.5t-35 126.5q-33 45 -94 45q-59 0 -92 -45q-29 -41 -36 -126t-7 -229zM311 1200l140 277h151l-166 -277h-125z" />
<glyph unicode="&#xf4;" d="M82 530q0 162 14.5 273.5t63.5 175.5q41 53 96 75.5t127 22.5t128 -22.5t97 -75.5q49 -63 62.5 -175t13.5 -274t-13.5 -273.5t-62.5 -174.5q-41 -53 -97 -75.5t-128 -22.5t-127 22.5t-96 75.5q-49 63 -63.5 175t-14.5 273zM127 1200l190 277h138l188 -277h-135l-123 178 l-121 -178h-137zM248 530q0 -143 7 -227t36 -125q33 -45 92 -45q61 0 94 45q29 41 35 125t6 227t-6 228.5t-35 126.5q-33 45 -94 45q-59 0 -92 -45q-29 -41 -36 -126t-7 -229z" />
<glyph unicode="&#xf5;" d="M82 530q0 162 14.5 273.5t63.5 175.5q41 53 96 75.5t127 22.5t128 -22.5t97 -75.5q49 -63 62.5 -175t13.5 -274t-13.5 -273.5t-62.5 -174.5q-41 -53 -97 -75.5t-128 -22.5t-127 22.5t-96 75.5q-49 63 -63.5 175t-14.5 273zM119 1315q53 53 89 70.5t75 17.5q35 0 60.5 -7 t57.5 -28q23 -14 44.5 -23.5t43.5 -9.5q18 0 38 8.5t53 40.5l77 -77q-53 -53 -91 -69.5t-74 -16.5q-35 0 -60.5 8t-56.5 26q-23 14 -44.5 22.5t-43.5 8.5q-20 0 -40 -7t-52 -40zM248 530q0 -143 7 -227t36 -125q33 -45 92 -45q61 0 94 45q29 41 35 125t6 227t-6 228.5 t-35 126.5q-33 45 -94 45q-59 0 -92 -45q-29 -41 -36 -126t-7 -229z" />
<glyph unicode="&#xf6;" d="M82 530q0 162 14.5 273.5t63.5 175.5q41 53 96 75.5t127 22.5t128 -22.5t97 -75.5q49 -63 62.5 -175t13.5 -274t-13.5 -273.5t-62.5 -174.5q-41 -53 -97 -75.5t-128 -22.5t-127 22.5t-96 75.5q-49 63 -63.5 175t-14.5 273zM141 1231v168h168v-168h-168zM248 530 q0 -143 7 -227t36 -125q33 -45 92 -45q61 0 94 45q29 41 35 125t6 227t-6 228.5t-35 126.5q-33 45 -94 45q-59 0 -92 -45q-29 -41 -36 -126t-7 -229zM463 1231v168h166v-168h-166z" />
<glyph unicode="&#xf7;" horiz-adv-x="909" d="M94 487v160h721v-160h-721zM354 125v203h203v-203h-203zM354 807v203h203v-203h-203z" />
<glyph unicode="&#xf8;" horiz-adv-x="757" d="M74 -90l73 186q-41 66 -53 176.5t-12 257.5q0 162 14.5 273.5t63.5 175.5q41 53 96 75.5t127 22.5q86 0 149 -35l43 109h119l-76 -186q43 -66 54.5 -176.5t11.5 -258.5q0 -162 -13.5 -273.5t-62.5 -174.5q-41 -53 -97 -75.5t-128 -22.5q-86 0 -150 34l-40 -108h-119z M248 530q0 -68 1 -120t9 -80l213 567q-33 37 -88 37q-59 0 -92 -45q-29 -41 -36 -126t-7 -233zM297 164q33 -37 86 -37q61 0 94 45q29 41 36 126t7 232q0 68 -2 120t-10 81z" />
<glyph unicode="&#xf9;" horiz-adv-x="808" d="M109 281v780h165v-780q0 -74 37 -111t90 -37t89 37t36 111v780h166v-1061h-160v82q-10 -18 -29.5 -36.5t-35.5 -29.5q-53 -33 -115 -32q-59 0 -102 19.5t-78 57.5q-33 35 -48 84.5t-15 135.5zM182 1477h152l141 -277h-127z" />
<glyph unicode="&#xfa;" horiz-adv-x="808" d="M109 281v780h165v-780q0 -74 37 -111t90 -37t89 37t36 111v780h166v-1061h-160v82q-10 -18 -29.5 -36.5t-35.5 -29.5q-53 -33 -115 -32q-59 0 -102 19.5t-78 57.5q-33 35 -48 84.5t-15 135.5zM346 1200l139 277h152l-166 -277h-125z" />
<glyph unicode="&#xfb;" horiz-adv-x="808" d="M109 281v780h165v-780q0 -74 37 -111t90 -37t89 37t36 111v780h166v-1061h-160v82q-10 -18 -29.5 -36.5t-35.5 -29.5q-53 -33 -115 -32q-59 0 -102 19.5t-78 57.5q-33 35 -48 84.5t-15 135.5zM150 1200l190 277h137l189 -277h-136l-122 178l-121 -178h-137z" />
<glyph unicode="&#xfc;" horiz-adv-x="808" d="M109 281v780h165v-780q0 -74 37 -111t90 -37t89 37t36 111v780h166v-1061h-160v82q-10 -18 -29.5 -36.5t-35.5 -29.5q-53 -33 -115 -32q-59 0 -102 19.5t-78 57.5q-33 35 -48 84.5t-15 135.5zM162 1231v168h168v-168h-168zM483 1231v168h166v-168h-166z" />
<glyph unicode="&#xfd;" horiz-adv-x="706" d="M8 1061h182l162 -797l160 797h182l-299 -1231q-16 -72 -49 -116t-78 -68.5t-102 -33.5t-123 -9v147q78 0 125 25.5t65 97.5l33 129zM285 1200l139 277h151l-165 -277h-125z" />
<glyph unicode="&#xfe;" horiz-adv-x="796" d="M119 -397v1855h160v-479q8 16 28.5 35.5t36.5 29.5q53 33 115 33q53 0 97 -18.5t79 -59.5q51 -59 63.5 -171t12.5 -298t-12.5 -297.5t-63.5 -171.5q-33 -39 -75 -58t-101 -19q-66 0 -115 30q-35 20 -59 60v-471h-166zM285 289q0 -84 41 -125q16 -16 38.5 -23.5t47.5 -7.5 q59 0 92 45q29 41 35 125t6 227t-6.5 228.5t-34.5 126.5q-33 45 -92 45q-53 0 -86 -33q-41 -41 -41 -123v-485z" />
<glyph unicode="&#xff;" horiz-adv-x="706" d="M8 1061h182l162 -797l160 797h182l-299 -1231q-16 -72 -49 -116t-78 -68.5t-102 -33.5t-123 -9v147q78 0 125 25.5t65 97.5l33 129zM115 1231v168h168v-168h-168zM436 1231v168h166v-168h-166z" />
<glyph unicode="&#x152;" horiz-adv-x="1273" d="M96 729q0 137 4 239.5t15.5 178.5t32 130t55.5 93q41 47 100 76t141 29q61 0 113.5 -22.5t83.5 -61.5v67h547v-158h-385v-489h332v-158h-332v-495h385v-158h-547v68q-72 -84 -197 -84q-82 0 -141 28.5t-100 75.5q-33 41 -54.5 95.5t-33 130t-15.5 177t-4 238.5zM272 729 q0 -129 2 -219t9.5 -150.5t19.5 -98.5t31 -64q18 -25 47 -40.5t72 -15.5t71.5 15.5t46.5 40.5q18 27 30.5 64.5t20 98t9.5 150.5t2 219t-2 219t-9.5 150.5t-19.5 98.5t-31 65q-18 25 -46.5 40t-71.5 15t-72 -15.5t-47 -39.5q-18 -27 -30.5 -65t-20 -98.5t-9.5 -150.5 t-2 -219z" />
<glyph unicode="&#x153;" horiz-adv-x="1200" d="M82 530q0 162 14.5 273.5t63.5 175.5q41 53 96 75.5t127 22.5q115 0 186 -67q10 -10 18.5 -21.5t16.5 -25.5q8 14 17.5 26t19.5 23q35 31 80 48t98 17q66 0 117 -18.5t92 -63.5q66 -72 79 -202.5t13 -300.5h-436q0 -127 8 -203t37 -111q16 -18 37.5 -31.5t54.5 -13.5 q57 0 94 41q37 43 37 121h164q-2 -72 -21.5 -129t-62.5 -105q-39 -41 -93 -59t-118 -18q-57 0 -102 17t-78 48q-18 18 -37 51q-14 -29 -37 -51q-35 -29 -81 -47t-103 -18q-72 0 -127 22.5t-96 75.5q-49 63 -63.5 175t-14.5 273zM248 530q0 -143 7 -227t36 -125 q33 -45 92 -45q61 0 94 45q29 41 35 125t6 227t-6 228.5t-35 126.5q-33 45 -94 45q-59 0 -92 -45q-29 -41 -36 -126t-7 -229zM684 616h270q0 109 -8 174.5t-33 94.5q-16 18 -38.5 31.5t-55.5 13.5t-54.5 -13.5t-37.5 -31.5q-25 -29 -34 -94.5t-9 -174.5z" />
<glyph unicode="&#x178;" horiz-adv-x="722" d="M4 1458h193l163 -622l164 622h195l-270 -868v-590h-177v590zM121 1589v168h168v-168h-168zM442 1589v168h166v-168h-166z" />
<glyph unicode="&#x2c6;" horiz-adv-x="772" d="M127 1200l190 277h138l188 -277h-135l-123 178l-121 -178h-137z" />
<glyph unicode="&#x2dc;" horiz-adv-x="772" d="M121 1315q53 53 89 70.5t75 17.5q35 0 60.5 -7t57.5 -28q23 -14 44.5 -23.5t44.5 -9.5q18 0 37.5 8.5t52.5 40.5l77 -77q-53 -53 -91 -69.5t-74 -16.5q-35 0 -60.5 8t-56.5 26q-23 14 -44.5 22.5t-43.5 8.5q-20 0 -40 -7t-52 -40z" />
<glyph unicode="&#x2000;" horiz-adv-x="972" />
<glyph unicode="&#x2001;" horiz-adv-x="1944" />
<glyph unicode="&#x2002;" horiz-adv-x="972" />
<glyph unicode="&#x2003;" horiz-adv-x="1944" />
<glyph unicode="&#x2004;" horiz-adv-x="648" />
<glyph unicode="&#x2005;" horiz-adv-x="486" />
<glyph unicode="&#x2006;" horiz-adv-x="324" />
<glyph unicode="&#x2007;" horiz-adv-x="324" />
<glyph unicode="&#x2008;" horiz-adv-x="243" />
<glyph unicode="&#x2009;" horiz-adv-x="388" />
<glyph unicode="&#x200a;" horiz-adv-x="108" />
<glyph unicode="&#x2010;" horiz-adv-x="610" d="M104 500v157h402v-157h-402z" />
<glyph unicode="&#x2011;" horiz-adv-x="610" d="M104 500v157h402v-157h-402z" />
<glyph unicode="&#x2012;" horiz-adv-x="610" d="M104 500v157h402v-157h-402z" />
<glyph unicode="&#x2013;" horiz-adv-x="909" d="M94 500v157h721v-157h-721z" />
<glyph unicode="&#x2014;" horiz-adv-x="1415" d="M104 500v157h1207v-157h-1207z" />
<glyph unicode="&#x2018;" horiz-adv-x="423" d="M117 1260v198l188 139v-337h-188z" />
<glyph unicode="&#x2019;" horiz-adv-x="423" d="M117 1120v338h188v-198z" />
<glyph unicode="&#x201a;" horiz-adv-x="423" d="M117 -139v338h188v-199z" />
<glyph unicode="&#x201c;" horiz-adv-x="763" d="M117 1260v198l188 139v-337h-188zM459 1260v198l188 139v-337h-188z" />
<glyph unicode="&#x201d;" horiz-adv-x="763" d="M117 1120v338h188v-198zM459 1120v338h188v-198z" />
<glyph unicode="&#x201e;" horiz-adv-x="763" d="M117 -139v338h188v-199zM459 -139v338h188v-199z" />
<glyph unicode="&#x2022;" horiz-adv-x="931" d="M131 684q0 70 26.5 130t71.5 105.5t105.5 72t130.5 26.5t130 -26.5t105 -72t72 -105.5t27 -130t-27 -130t-72 -105.5t-105 -72t-130 -26.5t-130.5 26.5t-105.5 72t-71.5 105.5t-26.5 130z" />
<glyph unicode="&#x2026;" horiz-adv-x="1230" d="M121 0v203h203v-203h-203zM514 0v203h203v-203h-203zM909 0v203h203v-203h-203z" />
<glyph unicode="&#x202f;" horiz-adv-x="388" />
<glyph unicode="&#x2039;" horiz-adv-x="460" d="M53 557l303 469v-260l-139 -209l139 -211v-260z" />
<glyph unicode="&#x203a;" horiz-adv-x="460" d="M104 86v260l140 211l-140 209v260l304 -469z" />
<glyph unicode="&#x205f;" horiz-adv-x="486" />
<glyph unicode="&#x20ac;" horiz-adv-x="970" d="M68 510v127h120v184h-120v127h125q2 92 8 157.5t18 115t30.5 85t45.5 64.5q41 47 101.5 76t148.5 29q76 0 132 -22.5t99 -63.5q51 -49 78 -124t29 -167h-176q0 41 -7.5 80t-26 69.5t-49 50t-79.5 19.5q-43 0 -73 -15.5t-48 -39.5q-14 -18 -24.5 -41t-16.5 -58t-10 -86 t-4 -129h245v-127h-247v-184h247v-127h-245q0 -78 4 -129t10 -86t16.5 -57.5t24.5 -40.5q18 -23 48 -39.5t73 -16.5q49 0 79.5 19.5t49 50.5t26 71t7.5 78h176q-2 -92 -31 -169.5t-82 -127.5q-43 -41 -97.5 -60t-127.5 -19q-88 0 -148.5 28.5t-101.5 75.5q-27 29 -45.5 64.5 t-30.5 85t-18 115t-8 157.5h-125z" />
<glyph unicode="&#x2122;" horiz-adv-x="1261" d="M59 1352v106h414v-106h-149v-781h-115v781h-150zM584 571v887h106l178 -477l176 477h109v-887h-117v598l-133 -385h-72l-133 377v-590h-114z" />
<glyph unicode="&#x25fc;" horiz-adv-x="1064" d="M0 0v1065h1065v-1065h-1065z" />
<glyph unicode="&#xfb01;" horiz-adv-x="882" d="M35 932v129h121v104q0 162 92 238q49 41 109.5 53t127.5 12v-149q-84 0 -123.5 -37t-39.5 -123v-98h163v-129h-163v-932h-166v932h-121zM586 1249v193h194v-193h-194zM600 0v1061h166v-1061h-166z" />
<glyph unicode="&#xfb02;" horiz-adv-x="958" d="M35 932v129h121v104q0 162 92 238q49 41 109.5 53t127.5 12v-149q-164 0 -163 -160v-98h163v-129h-163v-932h-166v932h-121zM600 303v1155h166v-1149q0 -160 160 -159v-150q-68 0 -126.5 12.5t-105.5 53.5q-43 35 -68.5 92t-25.5 145z" />
</font>
</defs>
</svg>
